<svg xmlns="http://www.w3.org/2000/svg" xmlns:xlink="http://www.w3.org/1999/xlink" version="1.1" id="Layer_1" x="0px" y="0px" style="enable-background:new 0 0 1000 1000;" xml:space="preserve" viewBox="90.8 417.26 818.4 165.49">
<style type="text/css">
	.st0{fill:#F15A29;}
	.st1{fill:#F7941E;}
</style>
<g>
	<g>
		<g>
			<path d="M106.64,543.91c-10.56-10.52-15.84-23.69-15.84-39.52c0.05-15.49,5.34-28.51,15.88-39.08     c10.54-10.56,23.6-15.84,39.19-15.84c15.74,0,29.24,4.9,40.52,14.7l-14.7,16.1c-7.5-5.88-16.1-8.82-25.81-8.82     c-9.9,0.05-17.88,3.14-23.93,9.26c-6.05,6.13-9.08,13.97-9.08,23.53c0.05,10.25,3.11,18.38,9.19,24.41     c6.08,6.03,14.07,9.05,23.97,9.05c9.9,0,18.46-2.92,25.66-8.75l14.7,16.1c-11.23,9.8-24.73,14.7-40.52,14.7     C130.28,559.7,117.21,554.42,106.64,543.91z"/>
			<path d="M360.64,559.75V449.46h7.35l47.79,54.41l47.87-54.41h7.35v110.29h-22.06l-0.07-63.97l-33.09,36.77l-33.09-36.77v63.97     H360.64z"/>
			<path d="M492.99,559.75V449.46h48.09c25.73,0,38.6,10.59,38.6,31.76c0,21.96-12.84,32.94-38.53,32.94h-26.1v45.58H492.99z      M515.05,493.58h30.88c8.87-0.15,13.43-4.19,13.68-12.13c-0.25-7.26-4.73-11.03-13.46-11.32h-31.1V493.58z"/>
		</g>
		<g>
			<path class="st0" d="M208.9,501.5c-0.23,0.69-0.48,1.37-0.71,2.06c0,0-3.4,9.67-8.38,31.95c-1.21,6.08-2.13,12.23-2.44,18.42     c-0.44,8.65-0.84,20.49,9.62,23.47c0.88,0.25,1.78,0.46,2.67,0.68l3.42,0.8c4.08,0.86,17.77,2.64,21.93,3.12l0.07-20.32     l18.64-37.06L208.9,501.5z"/>
			<path class="st1" d="M285.37,461.7c-0.64-1.15-1.44-2.37-2.41-3.47c-5.42-7.26-13.66-11.28-25.62-12.71     c-11.7-1.41-20.44,6.26-27.14,14.72c-5.57,7.04-10.12,14.8-13.97,22.95l45.83,24.86L285.37,461.7z"/>
			<path class="st0" d="M292.19,487.17l-14.1,29.55l17.63,9.56l-0.37-8.72C294.81,507.37,293.81,497.23,292.19,487.17z"/>
			<path class="st1" d="M235.01,582c12.58,1.01,36.94,1.67,48.98-2.6c8.36-2.97,10.69-5.43,11.65-14.72     c0.62-6.02,0.79-12.04,0.74-18.05l-26.13-13.48l-17.23,36.11L235.01,582z"/>
			<path d="M345.19,555.02c-4.83-27-11.42-58.01-18.21-84.57c-2.16-8.47-4.53-16.89-8-24.9c-3.34-7.73-8.31-9.74-15.97-6.59     c-2.67,1.1-5.05,2.74-7.35,4.52c-1.16,0.9-2.03,2.87-3.95,1.77c-1.73-0.99-1.22-2.88-1.22-4.43c-0.01-3.3-0.53-6.52-1.28-9.69     c-3.1-13.11-20.39-18.47-30.04-9.27c-4.43,4.22-6.5,9.32-8.24,15.21c-0.32,1.07-1.17,4.55,0.34,4.08     c4.93-1.54,11.6-0.61,11.6-0.61c1.24-8.8,3.82-11.57,10.94-11.12c4.03,0.25,7.6,6.47,5.96,10.28c-0.65,1.51-1.82,1.08-2.92,1.07     c-2.48-0.01-5.41-0.3-10.8,0.45c4.3,0.82,4.54,1.19,6.15,1.68c5.76,1.73,11.83,6.03,16.52,12.17c3.58,4.68,6.36,10.44,7.6,16.96     c0.3,1.57,0.59,3.13,0.87,4.7c2.1,11.72,3.68,23.5,4.2,35.42c0.26,5.88,0.56,11.77,0.79,17.65c0.25,6.65,0.38,13.29,0.19,19.92     c-0.17,6.14-0.61,12.29-1.5,18.41c-0.38,2.63,0.32,2.92,2.38,2.09c4.93-1.99,7.98-5.46,8.66-11.11c0.17-1.42,0.25-2.86,0.3-4.32     l17.56,9.06c3.68,2.81,7.54,2,11.22-0.41C343.89,561.5,345.92,559.15,345.19,555.02z M311.87,525.72     c-1.19-18.78-3.06-37.47-6.8-55.92c-0.44-2.16-0.93-4.31-1.52-6.42l0.79-1.65l19.22,79.67c0,0-0.02-0.01-0.02-0.01l-10.11-5.49     C312.02,534.7,311.98,527.36,311.87,525.72z"/>
		</g>
	</g>
	<g>
		<path d="M686.85,449.85v109.9h-22.57v-49.43h-48.38v49.43h-22.49v-109.9h22.49v39.24h48.38v-39.24H686.85z"/>
		<path d="M800.96,449.78v59.62c0,28.28-18.06,50.35-46.79,50.35c-27.91,0-46.72-21.69-46.72-50.35v-59.62h22.57v58.55    c0,14.71,7.22,30.2,24.23,30.2c16.02,0,24.15-14.33,24.15-30.2v-58.55H800.96z"/>
		<path d="M892.35,500.43c9.48,5.44,16.85,14.33,16.85,26.36c0,19.93-14.14,32.95-32.73,32.95h-54.85V449.93h44.76    c18.13,0,32.65,12.87,32.65,32.88C899.04,489.25,896.56,495.15,892.35,500.43z M844.12,470.39v24.06h22.49    c5.87-0.61,11.89-4.83,11.89-12.03c0-7.43-6.4-12.03-13.47-12.03H844.12z M873.61,538.98c6.55,0,13.54-4.29,13.54-12.65    c0-7.74-6.39-12.57-13.47-12.57h-29.57v25.21H873.61z"/>
	</g>
</g>
</svg>