<?xml version="1.0" encoding="utf-8"?>
<!-- Generator: Adobe Illustrator 27.8.1, SVG Export Plug-In . SVG Version: 6.00 Build 0)  -->
<svg version="1.1" id="Layer_1" xmlns="http://www.w3.org/2000/svg" xmlns:xlink="http://www.w3.org/1999/xlink" x="0px" y="0px"
	 viewBox="0 0 2400 1600" style="enable-background:new 0 0 2400 1600;" xml:space="preserve">
<style type="text/css">
	.st0{fill:#0D0D0D;}
	.st1{fill:#EE3324;}
	.st2{fill:none;}
</style>
<path class="st0" d="M472.1,876.6l0.8-1.26l-21.21-15.27l-0.9,1.41c-3.81,5.94-8.8,10.52-14.85,13.61
	c-6.08,3.1-13.17,4.67-21.08,4.67c-6.33,0-12.19-1.2-17.42-3.59c-5.24-2.38-9.83-5.73-13.64-9.96c-3.82-4.23-6.85-9.38-9.01-15.32
	c-2.16-5.95-3.26-12.57-3.26-19.68c0-6.99,1.1-13.54,3.26-19.49c2.16-5.93,5.22-11.12,9.1-15.41c3.87-4.29,8.5-7.71,13.75-10.15
	c5.24-2.44,11.03-3.68,17.22-3.68c7.65,0,14.55,1.57,20.52,4.67c5.93,3.08,10.87,7.66,14.68,13.61l0.9,1.41l1.36-0.97l18.45-13.23
	l1.24-0.89l-0.85-1.27c-6.08-9.12-13.96-16.23-23.42-21.12c-9.44-4.88-20.38-7.35-32.5-7.35c-10.12,0-19.64,1.93-28.31,5.72
	c-8.66,3.79-16.29,9.05-22.68,15.63c-6.39,6.58-11.49,14.5-15.15,23.53c-3.66,9.02-5.52,18.85-5.52,29.2
	c0,10.59,1.79,20.51,5.33,29.47c3.53,8.96,8.5,16.82,14.78,23.35c6.27,6.52,13.85,11.66,22.52,15.27
	c8.66,3.61,18.24,5.43,28.47,5.43c12.48,0,23.84-2.47,33.77-7.33C458.41,892.7,466.37,885.64,472.1,876.6"/>
<polygon class="st0" points="594.97,901.57 594.97,878.46 539.8,878.46 539.8,841 589.19,841 589.19,817.89 539.8,817.89 
	539.8,783.79 593.1,783.79 593.1,760.68 514.27,760.68 514.27,901.57 "/>
<polygon class="st0" points="832.2,783.79 832.2,901.57 859.22,901.57 859.22,783.79 895.94,783.79 895.94,760.68 795.49,760.68 
	795.49,783.79 "/>
<path class="st0" d="M1008.6,901.59h28.63l-28.98-53.73c18.36-6.39,30.11-22.96,30.11-42.73c0-26.58-19.67-44.44-48.94-44.44h-55.29
	v140.89h25.53v-50.63h22.16L1008.6,901.59z M1012.25,805.68c0,10.59-6.34,21.92-24.12,21.92h-28.46v-43.8h28.46
	C1005.92,783.8,1012.25,795.1,1012.25,805.68"/>
<path class="st0" d="M1179.62,901.57h28.42l-56.82-140.89h-24.87l-57,140.89h27.86l11.93-31.68h58.56L1179.62,901.57z
	 M1158.86,846.78h-40.89l20.45-54.3L1158.86,846.78z"/>
<polygon class="st0" points="1271.2,878.46 1271.2,760.65 1244.17,760.65 1244.17,901.57 1335.81,901.57 1335.81,878.46 "/>
<polygon class="st0" points="731.19,760.68 731.19,857.56 662.41,760.68 637.45,760.68 637.45,901.57 663.54,901.57 663.54,804.69 
	732.33,901.57 757.29,901.57 757.29,760.68 "/>
<rect x="1914.77" y="760.65" class="st1" width="27.02" height="140.89"/>
<polygon class="st1" points="1596.47,901.55 1596.47,878.43 1541.31,878.43 1541.31,840.98 1590.69,840.98 1590.69,817.87 
	1541.31,817.87 1541.31,783.77 1594.61,783.77 1594.61,760.65 1515.77,760.65 1515.77,901.55 "/>
<polygon class="st1" points="1664.86,783.76 1664.86,901.54 1691.88,901.54 1691.88,783.76 1728.6,783.76 1728.6,760.66 
	1628.15,760.66 1628.15,783.76 "/>
<path class="st1" d="M1850.22,901.55h28.42l-56.82-140.89h-24.87l-57,140.89h27.86l11.93-31.68h58.56L1850.22,901.55z
	 M1829.46,846.76h-40.89l20.45-54.3L1829.46,846.76z"/>
<polygon class="st1" points="2017.83,878.46 2017.83,760.65 1990.8,760.65 1990.8,901.57 2082.44,901.57 2082.44,878.46 "/>
<path class="st1" d="M1478.57,805.09c0-26.58-19.67-44.43-48.94-44.43h-55.29v140.89h25.54v-50.63h22.16l26.77,50.63h28.63
	l-28.98-53.73C1466.81,841.43,1478.57,824.86,1478.57,805.09 M1399.87,783.76h28.46c17.78,0,24.12,11.3,24.12,21.88
	c0,10.59-6.34,21.92-24.12,21.92h-28.46V783.76z"/>
<rect x="343.56" y="757.32" class="st2" width="1738.87" height="147.6"/>
</svg>
