<?xml version="1.0" encoding="utf-8"?>
<!-- Generator: Adobe Illustrator 27.8.1, SVG Export Plug-In . SVG Version: 6.00 Build 0)  -->
<svg version="1.1" id="Layer_1" xmlns="http://www.w3.org/2000/svg" xmlns:xlink="http://www.w3.org/1999/xlink" x="0px" y="0px"
	 viewBox="0 0 1079.94 312.47" style="enable-background:new 0 0 1079.94 312.47;" xml:space="preserve">
<style type="text/css">
	.st0{fill:#004370;}
	.st1{fill:#6AB96F;}
</style>
<g>
	<path class="st0" d="M398.01,149.68v37.89h60.66c-3.42,12.67-16.83,32.38-48.79,32.38c-40.35,0-58.41-31.94-58.41-63.58
		c0-43.55,29.2-63.04,58.14-63.04c40.47,0,50.55,34.21,50.55,37.82l40.94-14.58c-7.63-25.85-33.75-63.58-91.49-63.58
		c-27,0-52.16,9.84-70.84,27.72c-20.04,19.17-30.63,45.33-30.63,75.65c0,30.47,10.39,56.58,30.06,75.52
		c18.48,17.79,43.87,27.59,71.51,27.59c29.41,0,52.51-8.91,68.64-26.48c28.87-31.45,24.81-83.31,24.81-83.31H398.01z M653.21,175.05
		c0,28.4-11.58,43.68-37.97,43.68c-26.55,0-37.97-15.28-37.97-43.68V55.89h-45.07l0.93,119.77c0.31,54.02,23.92,83.81,82.11,83.81
		c58.03,0,81.65-29.79,82.11-83.81l0.93-119.77h-45.07V175.05z M1019.52,94.48V55.89H886.78v200.65h45.07v-82.88h75.63v-35.34
		h-75.63V94.48H1019.52z M777.35,55.89h-45.07v200.65h126.41v-39.07h-81.34V55.89z"/>
	<path class="st1" d="M199.74,122.57c-18.89,26.52-34.39,58.84-38.96,98.33c3.41,12.01,4.83,25,4.48,38.53
		c36.32,0.58,65.24-24.96,83.61-61.03c22.2-43.59,28.24-112.97,50.4-145.41C260.74,61.06,225.99,85.71,199.74,122.57z"/>
	<path class="st0" d="M60.42,151.67c16.41,38.73,26.66,105.7,104.83,107.76C166.89,197.78,131.33,153.55,60.42,151.67z"/>
</g>
</svg>
