<svg width="24" height="24" viewBox="0 0 24 24" fill="none" xmlns="http://www.w3.org/2000/svg">
<path fill-rule="evenodd" clip-rule="evenodd" d="M3.29016e-06 12C3.00047e-06 18.6274 5.37258 24 12 24C18.6274 24 24 18.6274 24 12C24 5.37258 18.6274 -2.34843e-07 12 -5.24537e-07C5.37258 -8.1423e-07 3.57985e-06 5.37258 3.29016e-06 12ZM16.5 13.5C17.3284 13.5 18 12.8284 18 12C18 11.1716 17.3284 10.5 16.5 10.5L11.1213 10.5L13.0607 8.56066C13.6464 7.97487 13.6464 7.02513 13.0607 6.43934C12.4749 5.85355 11.5251 5.85355 10.9393 6.43934L6.43934 10.9393C5.85356 11.5251 5.85355 12.4749 6.43934 13.0607L10.9393 17.5607C11.5251 18.1464 12.4749 18.1464 13.0607 17.5607C13.6464 16.9749 13.6464 16.0251 13.0607 15.4393L11.1213 13.5L16.5 13.5Z" fill="#FDFFFC"/>
</svg>
