<svg width="20" height="21" viewBox="0 0 20 21" fill="none" xmlns="http://www.w3.org/2000/svg">
<path d="M17 3.02393H16V1.02393C16 0.471641 15.5523 0.0239258 15 0.0239258C14.4477 0.0239258 14 0.471641 14 1.02393V3.02393H6V1.02393C6 0.471641 5.55228 0.0239258 5 0.0239258C4.44772 0.0239258 4 0.471641 4 1.02393V3.02393H3C1.34315 3.02393 0 4.36707 0 6.02393V7.02393H20V6.02393C20 4.36707 18.6569 3.02393 17 3.02393Z" fill="#FDFFFC"/>
<path d="M0 17.0239C0 18.6808 1.34315 20.0239 3 20.0239H17C18.6569 20.0239 20 18.6808 20 17.0239V9.02393H0V17.0239Z" fill="#FDFFFC"/>
</svg>
