<svg width="20" height="20" viewBox="0 0 20 20" fill="none" xmlns="http://www.w3.org/2000/svg">
<g id="Group">
<g id="Layer_80">
<path id="Path" d="M16 3V10C16 11.6569 14.6569 13 13 13H8.33L6.2 14.6L4.6 15.8C4.4269 15.9298 4.21637 16 4 16C3.84302 16.0028 3.688 15.9649 3.55 15.89C3.21372 15.7205 3.00114 15.3766 3 15V13C1.34315 13 0 11.6569 0 10V3C0 1.34315 1.34315 0 3 0H13C14.6569 0 16 1.34315 16 3Z" fill="#FDFFFC"/>
<path id="Path_2" d="M20 7V14C20 15.6569 18.6569 17 17 17V19C16.9989 19.3766 16.7863 19.7205 16.45 19.89C16.312 19.9649 16.157 20.0028 16 20C15.7836 20 15.5731 19.9298 15.4 19.8L11.67 17H7C6.40848 16.9974 5.83095 16.8199 5.34 16.49L8.66 14H13C15.2091 14 17 12.2091 17 10V4C18.6569 4 20 5.34315 20 7Z" fill="#FDFFFC"/>
</g>
</g>
</svg>
