<svg width="197" height="32" viewBox="0 0 197 32" fill="none" xmlns="http://www.w3.org/2000/svg">
<path fill-rule="evenodd" clip-rule="evenodd" d="M0.707031 16C0.707031 7.16344 7.87048 0 16.707 0H180.707C189.544 0 196.707 7.16344 196.707 16C196.707 24.8366 189.544 32 180.707 32H16.707C7.87048 32 0.707031 24.8366 0.707031 16ZM17.795 15.656C17.795 15.1013 17.891 14.6 18.083 14.152C18.275 13.6933 18.5524 13.304 18.915 12.984C19.2777 12.664 19.715 12.4187 20.227 12.248C20.7497 12.0667 21.3364 11.976 21.987 11.976C22.627 11.976 23.203 12.0667 23.715 12.248C24.2377 12.4187 24.6804 12.664 25.043 12.984C25.4057 13.304 25.683 13.6933 25.875 14.152C26.0777 14.6 26.179 15.1013 26.179 15.656V21H24.131V15.768C24.131 15.0853 23.939 14.5573 23.555 14.184C23.1817 13.8107 22.659 13.624 21.987 13.624C21.315 13.624 20.787 13.8107 20.403 14.184C20.0297 14.5573 19.843 15.0853 19.843 15.768V17.72H19.923C19.9764 17.496 20.0564 17.2827 20.163 17.08C20.2804 16.8667 20.4297 16.68 20.611 16.52C20.7924 16.36 21.0057 16.232 21.251 16.136C21.507 16.0293 21.8004 15.976 22.131 15.976H22.579V17.912H21.939C21.2564 17.912 20.7337 18.0187 20.371 18.232C20.019 18.4347 19.843 18.776 19.843 19.256V21H17.795V15.656ZM30.6295 21.16C29.7655 21.16 29.0775 20.952 28.5655 20.536C28.0535 20.1093 27.7975 19.4533 27.7975 18.568C27.7975 17.736 28.0429 17.096 28.5335 16.648C29.0242 16.2 29.7229 15.976 30.6295 15.976H33.3175V15.4C33.3175 14.824 33.1629 14.3867 32.8535 14.088C32.5442 13.7787 32.0535 13.624 31.3815 13.624C30.7522 13.624 30.2455 13.7627 29.8615 14.04C29.4775 14.3067 29.1629 14.6213 28.9175 14.984L27.6215 13.848C27.8029 13.5707 28.0109 13.32 28.2455 13.096C28.4909 12.8613 28.7682 12.664 29.0775 12.504C29.3975 12.3333 29.7549 12.2053 30.1495 12.12C30.5549 12.024 31.0082 11.976 31.5095 11.976C32.7789 11.976 33.7389 12.264 34.3895 12.84C35.0402 13.416 35.3655 14.2427 35.3655 15.32V21H33.3175V17.304H31.3175C30.3682 17.304 29.8935 17.6827 29.8935 18.44V18.744C29.8935 19.1173 30.0002 19.4107 30.2135 19.624C30.4269 19.8373 30.7202 19.944 31.0935 19.944C31.2642 19.944 31.4135 19.928 31.5415 19.896L31.6855 21.048C31.6002 21.08 31.4455 21.1067 31.2215 21.128C30.9975 21.1493 30.8002 21.16 30.6295 21.16ZM27.9154 9.16H35.0514V10.712H27.9154V9.16ZM37.7615 16.248L36.3855 15.688C36.4282 15.1333 36.5615 14.6267 36.7855 14.168C37.0095 13.7093 37.3082 13.32 37.6815 13C38.0655 12.6693 38.5135 12.4187 39.0255 12.248C39.5482 12.0667 40.1135 11.976 40.7215 11.976C41.3615 11.976 41.9322 12.0613 42.4335 12.232C42.9455 12.4027 43.3775 12.648 43.7295 12.968C44.0815 13.288 44.3482 13.6773 44.5295 14.136C44.7215 14.584 44.8175 15.0853 44.8175 15.64V21H42.7695V15.912C42.7695 15.176 42.5829 14.6107 42.2095 14.216C41.8362 13.8213 41.2975 13.624 40.5935 13.624C40.0389 13.624 39.5535 13.7467 39.1375 13.992C38.7322 14.2267 38.4495 14.536 38.2895 14.92L38.9135 15.16C39.2549 15.288 39.4895 15.4373 39.6175 15.608C39.7455 15.7787 39.8095 16.0347 39.8095 16.376V21H37.7615V16.248ZM46.7673 12.168H48.8153V13.64H48.8953C48.9699 13.4267 49.0766 13.2187 49.2153 13.016C49.3539 12.8133 49.5246 12.6373 49.7273 12.488C49.9406 12.328 50.1859 12.2053 50.4633 12.12C50.7513 12.024 51.0873 11.976 51.4713 11.976C52.4099 11.976 53.1299 12.2747 53.6313 12.872C54.1326 13.4693 54.3833 14.3227 54.3833 15.432V21H52.3353V15.624C52.3353 14.984 52.2019 14.4987 51.9353 14.168C51.6686 13.8267 51.2419 13.656 50.6553 13.656C50.4313 13.656 50.2073 13.688 49.9833 13.752C49.7593 13.816 49.5619 13.912 49.3913 14.04C49.2206 14.168 49.0819 14.328 48.9753 14.52C48.8686 14.7013 48.8153 14.9147 48.8153 15.16V21H46.7673V12.168ZM46.9242 9.16H52.1882V7.832H54.0602V10.712H46.9242V9.16ZM51.9962 4.536H53.7402V7.048H51.9962V4.536ZM58.4499 21.192C57.5326 21.192 56.8286 20.8933 56.3379 20.296C55.8472 19.6987 55.6019 18.8453 55.6019 17.736V12.168H57.6499V17.544C57.6499 18.152 57.7672 18.632 58.0019 18.984C58.2472 19.336 58.6686 19.512 59.2659 19.512C59.4899 19.512 59.7086 19.48 59.9219 19.416C60.1352 19.352 60.3219 19.2613 60.4819 19.144C60.6526 19.016 60.7912 18.8613 60.8979 18.68C61.0046 18.488 61.0579 18.2693 61.0579 18.024V12.168H63.1059V19.368H63.9539V21H62.6739C61.7566 21 61.2819 20.4773 61.2499 19.432H61.1539C60.9726 19.9227 60.6632 20.3387 60.2259 20.68C59.7992 21.0213 59.2072 21.192 58.4499 21.192ZM55.6517 9.16H60.9157V7.832H62.7877V10.712H55.6517V9.16ZM60.7237 4.536H62.4677V7.048H60.7237V4.536ZM67.0795 23.416L71.6715 9.16H73.3835L68.7915 23.416H67.0795ZM82.7732 21.192C82.0372 21.192 81.3705 21.0747 80.7732 20.84C80.1865 20.5947 79.6798 20.232 79.2532 19.752C78.8372 19.272 78.5172 18.68 78.2932 17.976C78.0692 17.2613 77.9572 16.4347 77.9572 15.496C77.9572 14.5573 78.0692 13.7253 78.2932 13C78.5172 12.264 78.8372 11.6507 79.2532 11.16C79.6798 10.6587 80.1865 10.28 80.7732 10.024C81.3705 9.768 82.0372 9.64 82.7732 9.64C83.7758 9.64 84.6078 9.85333 85.2692 10.28C85.9305 10.7067 86.4585 11.352 86.8532 12.216L85.0452 13.176C84.8852 12.6747 84.6238 12.2747 84.2612 11.976C83.8985 11.6667 83.4025 11.512 82.7732 11.512C81.9838 11.512 81.3545 11.7787 80.8852 12.312C80.4265 12.8453 80.1972 13.592 80.1972 14.552V16.312C80.1972 17.2827 80.4265 18.0293 80.8852 18.552C81.3545 19.064 81.9838 19.32 82.7732 19.32C83.4025 19.32 83.9145 19.1493 84.3092 18.808C84.7145 18.4667 85.0078 18.0453 85.1892 17.544L86.9012 18.552C86.4958 19.384 85.9572 20.0347 85.2852 20.504C84.6132 20.9627 83.7758 21.192 82.7732 21.192ZM90.3028 21C89.5988 21 89.0814 20.824 88.7508 20.472C88.4201 20.12 88.2548 19.624 88.2548 18.984V9.16H90.3028V19.368H91.4068V21H90.3028ZM93.6619 11.432C93.2352 11.432 92.9259 11.336 92.7339 11.144C92.5526 10.952 92.4619 10.7067 92.4619 10.408V10.088C92.4619 9.78933 92.5526 9.544 92.7339 9.352C92.9259 9.16 93.2352 9.064 93.6619 9.064C94.0779 9.064 94.3819 9.16 94.5739 9.352C94.7659 9.544 94.8619 9.78933 94.8619 10.088V10.408C94.8619 10.7067 94.7659 10.952 94.5739 11.144C94.3819 11.336 94.0779 11.432 93.6619 11.432ZM94.6859 12.648V21H92.6379V12.648H94.6859ZM100.036 21.192C99.4171 21.192 98.8678 21.0907 98.3878 20.888C97.9078 20.6853 97.5024 20.392 97.1718 20.008C96.8518 19.624 96.6064 19.1653 96.4358 18.632C96.2651 18.088 96.1798 17.48 96.1798 16.808C96.1798 16.136 96.2651 15.5333 96.4358 15C96.6064 14.4667 96.8518 14.0133 97.1718 13.64C97.5024 13.256 97.9078 12.9627 98.3878 12.76C98.8678 12.5573 99.4171 12.456 100.036 12.456C100.878 12.456 101.572 12.6427 102.116 13.016C102.67 13.3893 103.07 13.9067 103.316 14.568L101.636 15.32C101.54 14.968 101.358 14.68 101.092 14.456C100.836 14.2213 100.484 14.104 100.036 14.104C99.4598 14.104 99.0278 14.2853 98.7398 14.648C98.4624 15.0107 98.3238 15.4853 98.3238 16.072V17.592C98.3238 18.1787 98.4624 18.6533 98.7398 19.016C99.0278 19.368 99.4598 19.544 100.036 19.544C100.526 19.544 100.905 19.4213 101.172 19.176C101.438 18.92 101.646 18.6053 101.796 18.232L103.364 18.984C103.086 19.72 102.665 20.2747 102.1 20.648C101.534 21.0107 100.846 21.192 100.036 21.192ZM104.623 9.16H106.671V16.296H106.751L107.855 14.792L109.727 12.648H112.047L109.167 15.88L112.351 21H109.919L107.775 17.256L106.671 18.456V21H104.623V9.16ZM116.749 9.16H118.797V14.04H118.877C119.047 13.592 119.314 13.2187 119.677 12.92C120.05 12.6107 120.562 12.456 121.213 12.456C122.077 12.456 122.738 12.7387 123.197 13.304C123.655 13.8693 123.885 14.6747 123.885 15.72V21H121.837V15.928C121.837 15.3307 121.73 14.8827 121.517 14.584C121.303 14.2853 120.951 14.136 120.461 14.136C120.247 14.136 120.039 14.168 119.837 14.232C119.645 14.2853 119.469 14.3707 119.309 14.488C119.159 14.5947 119.037 14.7333 118.941 14.904C118.845 15.064 118.797 15.256 118.797 15.48V21H116.749V9.16ZM129.211 21.192C128.592 21.192 128.037 21.0907 127.547 20.888C127.067 20.6747 126.656 20.3813 126.315 20.008C125.984 19.624 125.728 19.1653 125.547 18.632C125.365 18.088 125.275 17.48 125.275 16.808C125.275 16.1467 125.36 15.5493 125.531 15.016C125.712 14.4827 125.968 14.0293 126.299 13.656C126.629 13.272 127.035 12.9787 127.515 12.776C127.995 12.5627 128.539 12.456 129.147 12.456C129.797 12.456 130.363 12.568 130.843 12.792C131.323 13.016 131.717 13.32 132.027 13.704C132.336 14.088 132.565 14.536 132.715 15.048C132.875 15.5493 132.955 16.088 132.955 16.664V17.336H127.403V17.544C127.403 18.152 127.573 18.6427 127.915 19.016C128.256 19.3787 128.763 19.56 129.435 19.56C129.947 19.56 130.363 19.4533 130.683 19.24C131.013 19.0267 131.307 18.7547 131.563 18.424L132.667 19.656C132.325 20.136 131.856 20.5147 131.259 20.792C130.672 21.0587 129.989 21.192 129.211 21.192ZM129.179 13.992C128.635 13.992 128.203 14.1733 127.883 14.536C127.563 14.8987 127.403 15.368 127.403 15.944V16.072H130.827V15.928C130.827 15.352 130.683 14.888 130.395 14.536C130.117 14.1733 129.712 13.992 129.179 13.992ZM134.437 21V12.648H136.485V14.376H136.565C136.618 14.152 136.698 13.9387 136.805 13.736C136.922 13.5227 137.071 13.336 137.253 13.176C137.434 13.016 137.647 12.888 137.893 12.792C138.149 12.696 138.442 12.648 138.773 12.648H139.221V14.584H138.581C137.887 14.584 137.365 14.6853 137.013 14.888C136.661 15.0907 136.485 15.4213 136.485 15.88V21H134.437ZM143.696 21.192C143.077 21.192 142.522 21.0907 142.032 20.888C141.552 20.6747 141.141 20.3813 140.8 20.008C140.469 19.624 140.213 19.1653 140.032 18.632C139.85 18.088 139.76 17.48 139.76 16.808C139.76 16.1467 139.845 15.5493 140.016 15.016C140.197 14.4827 140.453 14.0293 140.784 13.656C141.114 13.272 141.52 12.9787 142 12.776C142.48 12.5627 143.024 12.456 143.632 12.456C144.282 12.456 144.848 12.568 145.328 12.792C145.808 13.016 146.202 13.32 146.512 13.704C146.821 14.088 147.05 14.536 147.2 15.048C147.36 15.5493 147.44 16.088 147.44 16.664V17.336H141.888V17.544C141.888 18.152 142.058 18.6427 142.4 19.016C142.741 19.3787 143.248 19.56 143.92 19.56C144.432 19.56 144.848 19.4533 145.168 19.24C145.498 19.0267 145.792 18.7547 146.048 18.424L147.152 19.656C146.81 20.136 146.341 20.5147 145.744 20.792C145.157 21.0587 144.474 21.192 143.696 21.192ZM143.664 13.992C143.12 13.992 142.688 14.1733 142.368 14.536C142.048 14.8987 141.888 15.368 141.888 15.944V16.072H145.312V15.928C145.312 15.352 145.168 14.888 144.88 14.536C144.602 14.1733 144.197 13.992 143.664 13.992ZM168.707 4C175.334 4 180.707 9.37258 180.707 16C180.707 22.6274 175.334 28 168.707 28C162.08 28 156.707 22.6274 156.707 16C156.707 9.37258 162.08 4 168.707 4ZM162.707 16C162.707 15.1716 163.379 14.5 164.207 14.5H169.586L167.646 12.5607C167.061 11.9749 167.061 11.0251 167.646 10.4393C168.232 9.85355 169.182 9.85355 169.768 10.4393L174.268 14.9393C174.853 15.5251 174.853 16.4749 174.268 17.0607L169.768 21.5607C169.182 22.1464 168.232 22.1464 167.646 21.5607C167.061 20.9749 167.061 20.0251 167.646 19.4393L169.586 17.5L164.207 17.5C163.379 17.5 162.707 16.8284 162.707 16Z" fill="#FDFFFC"/>
</svg>
