<svg width="24" height="25" viewBox="0 0 24 25" fill="none" xmlns="http://www.w3.org/2000/svg">
<path fill-rule="evenodd" clip-rule="evenodd" d="M3 13.0239C3 8.05336 7.02944 4.02393 12 4.02393C16.9706 4.02393 21 8.05336 21 13.0239C21 17.9945 16.9706 22.0239 12 22.0239C7.02944 22.0239 3 17.9945 3 13.0239ZM14 16.0297C14.2666 16.0297 14.5222 15.9232 14.71 15.7339C14.8993 15.5462 15.0058 15.2906 15.0058 15.0239C15.0058 14.7573 14.8993 14.5017 14.71 14.3139L13 12.6139V9.02393C13 8.47164 12.5523 8.02393 12 8.02393C11.4477 8.02393 11 8.47164 11 9.02393V13.0239C10.9985 13.2897 11.1028 13.5452 11.29 13.7339L13.29 15.7339C13.4778 15.9232 13.7334 16.0297 14 16.0297Z" fill="#FDFFFC"/>
<path d="M18.9999 6.02389C18.8033 6.02614 18.611 5.96668 18.4499 5.85389L15.4499 3.85389C15.1155 3.67451 14.9114 3.32131 14.9231 2.94201C14.9347 2.56271 15.16 2.22267 15.5048 2.06413C15.8496 1.90558 16.2544 1.95584 16.5499 2.19389L19.5499 4.19389C19.9139 4.43849 20.0761 4.89174 19.9499 5.31175C19.8236 5.73176 19.4385 6.02051 18.9999 6.02389Z" fill="#FDFFFC"/>
<path d="M4.99993 6.02389C4.56137 6.02051 4.17619 5.73176 4.04996 5.31175C3.92373 4.89174 4.0859 4.43849 4.44993 4.19389L7.44993 2.19389C7.74545 1.95584 8.15026 1.90558 8.49503 2.06413C8.8398 2.22267 9.06513 2.56271 9.07676 2.94201C9.08839 3.32131 8.88433 3.67451 8.54993 3.85389L5.54993 5.85389C5.38888 5.96668 5.19653 6.02614 4.99993 6.02389Z" fill="#FDFFFC"/>
</svg>
