<svg width="33" height="32" viewBox="0 0 33 32" fill="none" xmlns="http://www.w3.org/2000/svg">
<path fill-rule="evenodd" clip-rule="evenodd" d="M16.7314 32C25.568 32 32.7314 24.8366 32.7314 16C32.7314 7.16344 25.568 0 16.7314 0C7.89489 0 0.731445 7.16344 0.731445 16C0.731445 24.8366 7.89489 32 16.7314 32ZM18.7314 10C18.7314 8.89543 17.836 8 16.7314 8C15.6269 8 14.7314 8.89543 14.7314 10L14.7314 17.1716L12.1457 14.5858C11.3646 13.8047 10.0983 13.8047 9.31723 14.5858C8.53618 15.3668 8.53618 16.6332 9.31723 17.4142L15.3172 23.4142C16.0983 24.1953 17.3646 24.1953 18.1457 23.4142L24.1457 17.4142C24.9267 16.6332 24.9267 15.3668 24.1457 14.5858C23.3646 13.8047 22.0983 13.8047 21.3172 14.5858L18.7314 17.1716V10Z" fill="#FDFFFC"/>
</svg>
