<svg width="229" height="454" viewBox="0 0 229 454" fill="none" xmlns="http://www.w3.org/2000/svg">
<g filter="url(#filter0_bi_321_17408)">
<mask id="path-1-outside-1_321_17408" maskUnits="userSpaceOnUse" x="0.818359" y="65.923" width="228" height="388" fill="black">
<rect fill="white" x="0.818359" y="65.923" width="228" height="388"/>
<path fill-rule="evenodd" clip-rule="evenodd" d="M4.27987 188.001C31.0444 188.001 52.7414 209.698 52.7414 236.463C52.7414 263.228 31.0444 284.925 4.27987 284.925C3.79098 284.925 3.30378 284.917 2.81837 284.903L2.81836 388.001C2.81836 396.838 9.98181 404.001 18.8184 404.001L66.0029 404.001C66.2922 430.517 87.877 451.923 114.462 451.923C141.046 451.923 162.631 430.517 162.92 404.001L210.818 404.001C219.655 404.001 226.818 396.838 226.818 388.001L226.818 84.0009C226.818 75.1644 219.655 68.0009 210.818 68.0009L18.8184 68.0009C9.98184 68.0009 2.81839 75.1644 2.81839 84.0009L2.81838 188.023C3.30379 188.009 3.79098 188.001 4.27987 188.001Z"/>
</mask>
<path fill-rule="evenodd" clip-rule="evenodd" d="M4.27987 188.001C31.0444 188.001 52.7414 209.698 52.7414 236.463C52.7414 263.228 31.0444 284.925 4.27987 284.925C3.79098 284.925 3.30378 284.917 2.81837 284.903L2.81836 388.001C2.81836 396.838 9.98181 404.001 18.8184 404.001L66.0029 404.001C66.2922 430.517 87.877 451.923 114.462 451.923C141.046 451.923 162.631 430.517 162.92 404.001L210.818 404.001C219.655 404.001 226.818 396.838 226.818 388.001L226.818 84.0009C226.818 75.1644 219.655 68.0009 210.818 68.0009L18.8184 68.0009C9.98184 68.0009 2.81839 75.1644 2.81839 84.0009L2.81838 188.023C3.30379 188.009 3.79098 188.001 4.27987 188.001Z" fill="url(#paint0_linear_321_17408)"/>
<path d="M2.81837 284.903L2.87757 282.904L0.81837 282.843L0.81837 284.903L2.81837 284.903ZM2.81836 388.001L4.81836 388.001L2.81836 388.001ZM18.8184 404.001L18.8184 402.001L18.8184 404.001ZM66.0029 404.001L68.0028 403.979L67.9812 402.001L66.0029 402.001L66.0029 404.001ZM162.92 404.001L162.92 402.001L160.942 402.001L160.92 403.979L162.92 404.001ZM210.818 404.001L210.818 406.001L210.818 404.001ZM226.818 388.001L224.818 388.001L226.818 388.001ZM226.818 84.0009L228.818 84.0009L226.818 84.0009ZM210.818 68.0009L210.818 70.0009L210.818 68.0009ZM18.8184 68.0009L18.8184 66.0009L18.8184 68.0009ZM2.81839 84.0009L0.81839 84.0009L2.81839 84.0009ZM2.81838 188.023L0.81838 188.023L0.818379 190.083L2.87758 190.022L2.81838 188.023ZM54.7414 236.463C54.7414 208.594 32.149 186.001 4.27987 186.001L4.27987 190.001C29.9399 190.001 50.7414 210.803 50.7414 236.463L54.7414 236.463ZM4.27987 286.925C32.149 286.925 54.7414 264.332 54.7414 236.463L50.7414 236.463C50.7414 262.123 29.9399 282.925 4.27987 282.925L4.27987 286.925ZM2.75917 286.902C3.26428 286.917 3.77121 286.925 4.27987 286.925L4.27987 282.925C3.81075 282.925 3.34328 282.918 2.87757 282.904L2.75917 286.902ZM4.81836 388.001L4.81837 284.903L0.81837 284.903L0.81836 388.001L4.81836 388.001ZM18.8184 402.001C11.0864 402.001 4.81836 395.733 4.81836 388.001L0.81836 388.001C0.818359 397.942 8.87724 406.001 18.8184 406.001L18.8184 402.001ZM66.0029 402.001L18.8184 402.001L18.8184 406.001L66.0029 406.001L66.0029 402.001ZM114.462 449.923C88.9743 449.923 68.2801 429.4 68.0028 403.979L64.003 404.023C64.3042 431.634 86.7798 453.923 114.462 453.923L114.462 449.923ZM160.92 403.979C160.643 429.4 139.949 449.923 114.462 449.923L114.462 453.923C142.143 453.923 164.619 431.634 164.92 404.023L160.92 403.979ZM210.818 402.001L162.92 402.001L162.92 406.001L210.818 406.001L210.818 402.001ZM224.818 388.001C224.818 395.733 218.55 402.001 210.818 402.001L210.818 406.001C220.759 406.001 228.818 397.942 228.818 388.001L224.818 388.001ZM224.818 84.0009L224.818 388.001L228.818 388.001L228.818 84.0009L224.818 84.0009ZM210.818 70.0009C218.55 70.0009 224.818 76.269 224.818 84.0009L228.818 84.0009C228.818 74.0598 220.759 66.0009 210.818 66.0009L210.818 70.0009ZM18.8184 70.0009L210.818 70.0009L210.818 66.0009L18.8184 66.0009L18.8184 70.0009ZM4.81839 84.0009C4.81839 76.269 11.0864 70.0009 18.8184 70.0009L18.8184 66.0009C8.87727 66.0009 0.818391 74.0598 0.81839 84.0009L4.81839 84.0009ZM4.81838 188.023L4.81839 84.0009L0.81839 84.0009L0.81838 188.023L4.81838 188.023ZM4.27987 186.001C3.77126 186.001 3.26432 186.009 2.75918 186.024L2.87758 190.022C3.34325 190.008 3.81071 190.001 4.27987 190.001L4.27987 186.001Z" fill="#FDFFFC" mask="url(#path-1-outside-1_321_17408)"/>
</g>
<path d="M75.5526 318.205C75.5526 319.117 75.6126 319.861 75.7326 320.437C75.8526 320.989 76.0926 321.421 76.4526 321.733C76.8366 322.021 77.3646 322.225 78.0366 322.345C78.7326 322.465 79.6566 322.537 80.8086 322.561V324.001H66.4806V322.561C67.2726 322.537 67.9206 322.465 68.4246 322.345C68.9286 322.225 69.3126 322.021 69.5766 321.733C69.8406 321.445 70.0206 321.037 70.1166 320.509C70.2126 319.981 70.2606 319.297 70.2606 318.457V301.825C70.2606 300.985 70.2126 300.313 70.1166 299.809C70.0446 299.281 69.8886 298.873 69.6486 298.585C69.4086 298.273 69.0606 298.069 68.6046 297.973C68.1726 297.853 67.5966 297.769 66.8766 297.721V296.281H88.9086L89.3406 303.877H87.8286C87.6846 302.845 87.4686 301.981 87.1806 301.285C86.9166 300.565 86.5326 299.989 86.0286 299.557C85.5246 299.101 84.8766 298.777 84.0846 298.585C83.2926 298.393 82.3206 298.297 81.1686 298.297H76.2006C75.7686 298.297 75.5526 298.501 75.5526 298.909V309.313C77.0166 309.313 78.2046 309.253 79.1166 309.133C80.0526 309.013 80.7966 308.785 81.3486 308.449C81.9006 308.089 82.2966 307.609 82.5366 307.009C82.7766 306.409 82.9446 305.617 83.0406 304.633H84.3726V315.901H83.0406C82.8966 314.893 82.6926 314.089 82.4286 313.489C82.1646 312.865 81.7566 312.397 81.2046 312.085C80.6766 311.749 79.9566 311.521 79.0446 311.401C78.1326 311.281 76.9686 311.221 75.5526 311.221V318.205ZM104.931 315.613H94.7432C93.6152 318.157 93.0512 319.921 93.0512 320.905C93.0512 321.625 93.3152 322.081 93.8432 322.273C94.3952 322.465 95.2112 322.561 96.2912 322.561V324.001H86.4272V322.561C87.0032 322.489 87.4952 322.393 87.9032 322.273C88.3352 322.153 88.7072 321.985 89.0192 321.769C89.3552 321.553 89.6432 321.277 89.8832 320.941C90.1232 320.581 90.3512 320.149 90.5672 319.645L100.035 295.921H102.699L111.303 316.945C111.807 318.169 112.227 319.129 112.563 319.825C112.923 320.521 113.295 321.061 113.679 321.445C114.087 321.805 114.543 322.057 115.047 322.201C115.575 322.345 116.247 322.453 117.063 322.525V324.001H103.455V322.525C104.607 322.477 105.435 322.357 105.939 322.165C106.443 321.973 106.695 321.589 106.695 321.013C106.695 320.677 106.611 320.245 106.443 319.717C106.275 319.189 106.047 318.541 105.759 317.773L104.931 315.613ZM95.5712 313.453H104.139L99.9992 302.545H99.8552L95.5712 313.453ZM131.326 295.921C133.51 295.921 135.55 296.293 137.446 297.037C139.342 297.781 140.986 298.813 142.378 300.133C143.794 301.429 144.898 302.965 145.69 304.741C146.506 306.493 146.914 308.377 146.914 310.393C146.914 312.865 146.302 315.145 145.078 317.233C143.878 319.297 142.186 321.037 140.002 322.453C139.594 322.717 139.198 322.957 138.814 323.173C138.454 323.365 138.034 323.569 137.554 323.785C137.074 324.001 136.51 324.229 135.862 324.469C135.238 324.709 134.482 324.985 133.594 325.297C133.066 325.489 132.61 325.657 132.226 325.801C131.866 325.945 131.542 326.077 131.254 326.197C130.966 326.341 130.702 326.473 130.462 326.593C130.246 326.737 130.03 326.881 129.814 327.025V327.169C129.982 327.145 130.198 327.121 130.462 327.097C130.726 327.097 130.978 327.097 131.218 327.097C132.25 327.097 133.222 327.205 134.134 327.421C135.07 327.661 135.982 327.913 136.87 328.177C137.782 328.441 138.694 328.681 139.606 328.897C140.518 329.137 141.478 329.257 142.486 329.257C143.638 329.257 144.538 329.053 145.186 328.645C145.834 328.237 146.338 327.553 146.698 326.593H148.03C148.078 326.905 148.114 327.193 148.138 327.457C148.162 327.721 148.174 327.949 148.174 328.141C148.174 328.885 148.006 329.569 147.67 330.193C147.334 330.841 146.866 331.393 146.266 331.849C145.666 332.329 144.958 332.701 144.142 332.965C143.326 333.229 142.45 333.361 141.514 333.361C140.17 333.361 138.922 333.133 137.77 332.677C136.618 332.221 135.514 331.717 134.458 331.165C133.402 330.613 132.394 330.109 131.434 329.653C130.474 329.197 129.526 328.969 128.59 328.969C127.942 328.969 127.414 329.077 127.006 329.293C126.598 329.509 126.226 329.737 125.89 329.977C125.578 330.241 125.254 330.481 124.918 330.697C124.606 330.913 124.222 331.021 123.766 331.021C123.358 331.021 123.034 330.925 122.794 330.733C122.554 330.541 122.434 330.301 122.434 330.013C122.434 329.605 122.614 329.221 122.974 328.861C123.358 328.525 124.054 328.081 125.062 327.529L129.598 324.973C127.678 324.805 125.89 324.313 124.234 323.497C122.578 322.681 121.138 321.625 119.914 320.329C118.714 319.033 117.766 317.545 117.07 315.865C116.374 314.161 116.026 312.349 116.026 310.429C116.026 308.389 116.41 306.481 117.178 304.705C117.97 302.929 119.05 301.393 120.418 300.097C121.786 298.801 123.406 297.781 125.278 297.037C127.15 296.293 129.166 295.921 131.326 295.921ZM131.326 322.921C132.742 322.921 134.026 322.633 135.178 322.057C136.33 321.457 137.302 320.617 138.094 319.537C138.91 318.457 139.534 317.149 139.966 315.613C140.422 314.077 140.65 312.373 140.65 310.501C140.65 308.629 140.422 306.937 139.966 305.425C139.534 303.913 138.91 302.629 138.094 301.573C137.302 300.517 136.33 299.701 135.178 299.125C134.026 298.549 132.742 298.261 131.326 298.261C129.91 298.261 128.638 298.549 127.51 299.125C126.406 299.677 125.47 300.481 124.702 301.537C123.934 302.593 123.334 303.877 122.902 305.389C122.494 306.901 122.29 308.605 122.29 310.501C122.29 312.421 122.494 314.149 122.902 315.685C123.334 317.221 123.934 318.529 124.702 319.609C125.494 320.665 126.442 321.481 127.546 322.057C128.674 322.633 129.934 322.921 131.326 322.921ZM150.707 324.001H149.591V317.449H151.103C151.511 319.177 152.099 320.437 152.867 321.229C153.635 322.021 154.631 322.417 155.855 322.417C156.743 322.417 157.427 322.237 157.907 321.877C158.411 321.493 158.663 320.977 158.663 320.329C158.663 319.657 158.363 319.009 157.763 318.385C157.163 317.737 156.191 317.053 154.847 316.333C153.023 315.349 151.715 314.377 150.923 313.417C150.131 312.433 149.735 311.329 149.735 310.105C149.735 309.313 149.879 308.581 150.167 307.909C150.479 307.213 150.887 306.613 151.391 306.109C151.919 305.605 152.543 305.221 153.263 304.957C153.983 304.669 154.763 304.525 155.603 304.525C156.347 304.525 157.079 304.633 157.799 304.849C158.543 305.065 159.191 305.365 159.743 305.749L160.391 304.885H161.327V310.321H159.923C159.371 308.953 158.795 307.969 158.195 307.369C157.619 306.769 156.911 306.469 156.071 306.469C155.399 306.469 154.859 306.649 154.451 307.009C154.067 307.369 153.875 307.849 153.875 308.449C153.875 309.121 154.163 309.757 154.739 310.357C155.339 310.957 156.323 311.617 157.691 312.337C158.651 312.865 159.479 313.381 160.175 313.885C160.871 314.389 161.435 314.905 161.867 315.433C162.299 315.937 162.611 316.477 162.803 317.053C163.019 317.605 163.127 318.205 163.127 318.853C163.127 319.693 162.971 320.449 162.659 321.121C162.347 321.793 161.903 322.369 161.327 322.849C160.751 323.329 160.055 323.701 159.239 323.965C158.447 324.229 157.559 324.361 156.575 324.361C155.543 324.361 154.583 324.229 153.695 323.965C152.807 323.677 152.075 323.269 151.499 322.741L150.707 324.001Z" fill="#FDFFFC"/>
<path fill-rule="evenodd" clip-rule="evenodd" d="M40.8184 340.001C31.9818 340.001 24.8184 347.164 24.8184 356.001C24.8184 364.838 31.9818 372.001 40.8184 372.001H188.818C197.655 372.001 204.818 364.838 204.818 356.001C204.818 347.164 197.655 340.001 188.818 340.001H40.8184ZM46.793 359.593C47.657 360.601 48.777 361.193 50.441 361.193C52.633 361.193 54.057 360.041 54.057 358.377C54.057 356.729 52.953 356.057 51.209 355.801L50.345 355.673C49.449 355.545 49.081 355.241 49.081 354.617C49.081 353.993 49.529 353.593 50.489 353.593C51.385 353.593 52.185 354.009 52.681 354.569L53.897 353.353C53.065 352.489 52.121 351.977 50.473 351.977C48.489 351.977 47.113 353.033 47.113 354.761C47.113 356.425 48.313 357.193 50.073 357.417L50.937 357.529C51.705 357.641 52.089 357.913 52.089 358.553C52.089 359.193 51.625 359.577 50.553 359.577C49.513 359.577 48.681 359.129 48.057 358.393L46.793 359.593ZM55.8032 360.521C56.4432 360.969 57.3232 361.193 58.2512 361.193C60.7152 361.193 62.0752 359.417 62.0752 356.569C62.0752 353.753 60.7152 351.977 58.2512 351.977C56.4592 351.977 55.2112 352.825 54.6832 354.185L56.3472 354.921C56.5712 354.169 57.1792 353.625 58.1552 353.625C59.3232 353.625 59.9312 354.489 59.9312 355.817V357.369C59.9312 358.713 59.3072 359.545 58.1552 359.545C57.4512 359.545 56.9552 359.305 56.5552 359.065L55.8032 360.521ZM65.8075 359.529C66.1115 360.393 66.8475 361.193 68.3515 361.193C70.2075 361.193 71.2475 359.945 71.2475 357.737V352.169H69.1995V357.545C69.1995 358.665 68.7995 359.513 67.5195 359.513C66.6555 359.513 65.7275 359.001 65.7275 358.025V352.169H63.6795V361.001H65.7275V359.529H65.8075ZM72.8993 358.025C72.8993 360.169 74.3713 361.193 76.5473 361.193C78.7553 361.193 80.0513 359.881 80.0513 357.753V352.169H78.0033V357.961C78.0033 358.937 77.4433 359.497 76.4993 359.497C75.6033 359.497 75.0433 359.001 75.0433 358.057V357.593C75.0433 356.841 75.2833 356.377 75.6193 355.737C76.0673 354.905 76.2753 354.313 76.2753 353.657V353.577C76.2753 352.729 75.6673 352.169 74.5953 352.169H72.7873V353.865H74.3233V354.073C74.3233 354.633 73.9873 355.193 73.6673 355.689C73.2993 356.233 72.8993 356.841 72.8993 358.025ZM76.6105 349.161V350.601H81.5065V349.161H78.5785V349.065C79.1065 348.825 79.4105 348.329 79.4105 347.833C79.4105 347.081 78.8185 346.585 77.8105 346.585H76.6105V348.025H77.0105C77.5225 348.025 77.6825 348.201 77.6825 348.601V349.161H76.6105ZM81.18 358.089C81.18 359.913 82.812 361.193 85.02 361.193C87.66 361.193 89.196 359.449 89.196 356.585C89.196 353.705 87.612 351.977 84.94 351.977C82.988 351.977 81.66 352.777 81.036 353.785L82.284 354.905C82.7 354.265 83.628 353.625 84.86 353.625C86.236 353.625 87.052 354.473 87.052 355.897V357.321C87.052 358.745 86.332 359.609 85.1 359.609C83.836 359.609 83.052 359.033 83.052 357.929V357.545H84.348V355.993H82.492C81.58 355.993 81.18 356.489 81.18 357.289V358.089ZM92.9182 359.529C93.2222 360.393 93.9582 361.193 95.4622 361.193C97.3182 361.193 98.3582 359.945 98.3582 357.737V352.169H96.3102V357.545C96.3102 358.665 95.9102 359.513 94.6302 359.513C93.7662 359.513 92.8382 359.001 92.8382 358.025V352.169H90.7902V361.001H92.8382V359.529H92.9182ZM93.1082 364.665C93.1082 365.833 93.7802 366.697 95.4922 366.697C97.2202 366.697 98.0362 365.673 98.0362 364.265V362.713H96.3082V364.345C96.3082 365.001 96.1162 365.321 95.4922 365.321C94.8682 365.321 94.6762 365.001 94.6762 364.345V363.737C94.6762 363.113 94.2922 362.713 93.3482 362.713H92.0682V364.089H93.1082V364.665ZM99.6579 358.569C99.6579 360.329 100.778 361.161 102.49 361.161C102.826 361.161 103.37 361.113 103.546 361.049L103.402 359.897C103.274 359.929 103.13 359.945 102.954 359.945C102.202 359.945 101.754 359.481 101.754 358.745V358.441C101.754 357.689 102.25 357.305 103.178 357.305H105.178V361.001H107.226V355.321C107.226 353.177 105.898 351.977 103.37 351.977C101.354 351.977 100.218 352.729 99.4819 353.849L100.778 354.985C101.274 354.249 101.994 353.625 103.242 353.625C104.57 353.625 105.178 354.249 105.178 355.401V355.977H102.49C100.698 355.977 99.6579 356.921 99.6579 358.569ZM109.478 358.985C109.478 360.265 110.134 361.001 111.526 361.001H112.694V359.369H111.526V352.169H109.478V358.985ZM114.794 356.249V361.001H116.842V356.377C116.842 355.705 116.634 355.417 115.946 355.161L115.322 354.921C115.642 354.153 116.522 353.625 117.626 353.625C119.018 353.625 119.802 354.457 119.802 355.913V361.001H121.85V355.641C121.85 353.417 120.314 351.977 117.754 351.977C115.306 351.977 113.578 353.449 113.418 355.689L114.794 356.249ZM114.401 349.161V350.713H121.537V347.833H119.665V349.161H114.401ZM119.473 344.537V347.049H121.217V344.537H119.473ZM122.824 358.585C122.824 360.249 124.184 361.193 126.44 361.193C128.92 361.193 130.504 359.913 130.504 357.913V352.169H128.456V357.641C128.456 358.873 127.704 359.545 126.504 359.545C125.464 359.545 124.872 359.145 124.872 358.345V358.025C124.872 357.401 125.304 357.017 125.864 357.017H126.728V355.641H125.864C124.92 355.641 124.6 355.209 124.6 354.601C124.6 353.977 125.064 353.609 125.672 353.609C125.944 353.609 126.184 353.657 126.456 353.801L126.888 352.313C126.424 352.057 125.784 351.977 125.304 351.977C123.768 351.977 122.76 352.905 122.76 354.281C122.76 355.353 123.4 356.169 124.456 356.425V356.521C123.496 356.793 122.824 357.561 122.824 358.585ZM132.737 360.521C133.377 360.969 134.257 361.193 135.185 361.193C137.649 361.193 139.009 359.417 139.009 356.569C139.009 353.753 137.649 351.977 135.185 351.977C133.393 351.977 132.145 352.825 131.617 354.185L133.281 354.921C133.505 354.169 134.113 353.625 135.089 353.625C136.257 353.625 136.865 354.489 136.865 355.817V357.369C136.865 358.713 136.241 359.545 135.089 359.545C134.385 359.545 133.889 359.305 133.489 359.065L132.737 360.521ZM141.381 356.249V361.001H143.429V356.377C143.429 355.705 143.221 355.417 142.533 355.161L141.909 354.921C142.229 354.153 143.109 353.625 144.213 353.625C145.605 353.625 146.389 354.457 146.389 355.913V361.001H148.437V355.641C148.437 353.417 146.901 351.977 144.341 351.977C141.893 351.977 140.165 353.449 140.005 355.689L141.381 356.249ZM144.333 349.049C144.333 350.105 144.957 350.713 146.173 350.713H150.253V349.161H146.029V347.833H144.333V349.049ZM149.971 357.641C149.971 359.801 151.443 361.193 153.843 361.193C156.243 361.193 157.715 359.801 157.715 357.641V352.169H155.667V357.529C155.667 358.809 154.979 359.545 153.843 359.545C152.707 359.545 152.019 358.809 152.019 357.529V352.169H149.971V357.641ZM158.773 354.665L161.541 361.001H162.933C165.173 361.001 166.517 359.353 166.517 356.585C166.517 353.817 165.173 352.169 162.933 352.169H162.293V353.817H162.917C163.829 353.817 164.373 354.585 164.373 355.881V357.305C164.373 358.601 163.829 359.369 162.917 359.369H162.853L160.805 354.665H158.773ZM171.766 355.097V361.001H173.814V354.985C173.814 353.049 172.63 351.977 170.406 351.977C168.726 351.977 167.798 352.617 167.19 353.593L168.406 354.681C168.79 354.089 169.318 353.625 170.262 353.625C171.302 353.625 171.766 354.169 171.766 355.097ZM175.667 357.737C175.667 359.945 176.691 361.193 178.515 361.193C180.019 361.193 180.867 360.409 181.219 359.433H181.315C181.347 360.457 181.827 361.001 182.739 361.001H184.019V359.369H183.171V352.169H181.123V358.025C181.123 359.001 180.211 359.513 179.331 359.513C178.147 359.513 177.715 358.745 177.715 357.545V352.169H175.667V357.737Z" fill="#FDFFFC"/>
<path d="M123.354 218.058L98.4091 218.929L97.0773 180.792C122.7 178.697 136.996 168.592 136.326 149.403L136.209 146.045C135.698 131.414 125.562 123.123 110.691 123.642C94.8608 124.195 85.3953 135.092 82.5315 149.361L59.4272 141.042C64.4884 120.933 79.9053 101.663 110.846 100.583C142.267 99.4854 163.068 117.49 164.057 145.793C165.07 174.816 144.036 191.4 122.583 195.991L123.354 218.058ZM113.056 273.891C100.824 274.318 95.3123 267.787 94.9941 258.672L94.8517 254.595C94.5334 245.48 99.5756 238.58 111.808 238.153C124.041 237.726 129.552 244.257 129.87 253.372L130.013 257.449C130.331 266.564 125.289 273.464 113.056 273.891Z" fill="white"/>
<defs>
<filter id="filter0_bi_321_17408" x="-74.1816" y="-8.99908" width="378" height="537.922" filterUnits="userSpaceOnUse" color-interpolation-filters="sRGB">
<feFlood flood-opacity="0" result="BackgroundImageFix"/>
<feGaussianBlur in="BackgroundImageFix" stdDeviation="37.5"/>
<feComposite in2="SourceAlpha" operator="in" result="effect1_backgroundBlur_321_17408"/>
<feBlend mode="normal" in="SourceGraphic" in2="effect1_backgroundBlur_321_17408" result="shape"/>
<feColorMatrix in="SourceAlpha" type="matrix" values="0 0 0 0 0 0 0 0 0 0 0 0 0 0 0 0 0 0 127 0" result="hardAlpha"/>
<feOffset dy="-5"/>
<feGaussianBlur stdDeviation="7.5"/>
<feComposite in2="hardAlpha" operator="arithmetic" k2="-1" k3="1"/>
<feColorMatrix type="matrix" values="0 0 0 0 1 0 0 0 0 1 0 0 0 0 1 0 0 0 0.65 0"/>
<feBlend mode="normal" in2="shape" result="effect2_innerShadow_321_17408"/>
</filter>
<linearGradient id="paint0_linear_321_17408" x1="216.458" y1="292.621" x2="11.2739" y2="289.244" gradientUnits="userSpaceOnUse">
<stop offset="0.0150313" stop-color="#CA4072" stop-opacity="0.35"/>
<stop offset="0.293155" stop-color="#DE5C8E" stop-opacity="0.25"/>
<stop offset="0.913354" stop-color="#FDFFFC" stop-opacity="0.05"/>
</linearGradient>
</defs>
</svg>
