<svg width="330" height="503" viewBox="0 0 330 503" fill="none" xmlns="http://www.w3.org/2000/svg">
<mask id="path-1-outside-1_238_2030" maskUnits="userSpaceOnUse" x="0" y="0" width="330" height="503" fill="black">
<rect fill="white" width="330" height="503"/>
<path fill-rule="evenodd" clip-rule="evenodd" d="M328 437.384C328 446.221 320.836 453.384 312 453.384L212.019 453.384C212.019 479.352 190.968 500.403 165 500.403C139.032 500.403 117.981 479.352 117.981 453.384L18 453.384C9.16345 453.384 2 446.221 2 437.384L2.00004 18C2.00004 9.16343 9.16349 2 18 2L312 2.00002C320.837 2.00003 328 9.16347 328 18V180.679C327.739 180.675 327.478 180.673 327.216 180.673C301.248 180.673 280.197 201.724 280.197 227.692C280.197 253.66 301.248 274.711 327.216 274.711C327.478 274.711 327.739 274.709 328 274.705V437.384Z"/>
</mask>
<path fill-rule="evenodd" clip-rule="evenodd" d="M328 437.384C328 446.221 320.836 453.384 312 453.384L212.019 453.384C212.019 479.352 190.968 500.403 165 500.403C139.032 500.403 117.981 479.352 117.981 453.384L18 453.384C9.16345 453.384 2 446.221 2 437.384L2.00004 18C2.00004 9.16343 9.16349 2 18 2L312 2.00002C320.837 2.00003 328 9.16347 328 18V180.679C327.739 180.675 327.478 180.673 327.216 180.673C301.248 180.673 280.197 201.724 280.197 227.692C280.197 253.66 301.248 274.711 327.216 274.711C327.478 274.711 327.739 274.709 328 274.705V437.384Z" fill="url(#paint0_linear_238_2030)"/>
<path d="M312 453.384V455.384V453.384ZM212.019 453.384V451.384H210.019V453.384H212.019ZM117.981 453.384H119.981V451.384H117.981V453.384ZM18 453.384V455.384H18L18 453.384ZM2 437.384H0H2ZM2.00004 18H4.00004H2.00004ZM18 2V0V2ZM312 2.00002V2.46763e-05V2.00002ZM328 180.679L327.967 182.679L330 182.712V180.679H328ZM328 274.705H330V272.672L327.967 272.705L328 274.705ZM312 455.384C321.941 455.384 330 447.326 330 437.384H326C326 445.116 319.732 451.384 312 451.384V455.384ZM212.019 455.384L312 455.384V451.384L212.019 451.384V455.384ZM210.019 453.384C210.019 478.248 189.863 498.403 165 498.403V502.403C192.073 502.403 214.019 480.457 214.019 453.384H210.019ZM165 498.403C140.137 498.403 119.981 478.248 119.981 453.384H115.981C115.981 480.457 137.927 502.403 165 502.403V498.403ZM18 455.384L117.981 455.384V451.384L18 451.384L18 455.384ZM0 437.384C0 447.326 8.05888 455.384 18 455.384V451.384C10.268 451.384 4 445.116 4 437.384H0ZM3.96967e-05 18L0 437.384H4L4.00004 18H3.96967e-05ZM18 0C8.05892 0 4.05312e-05 8.05885 3.96967e-05 18H4.00004C4.00004 10.268 10.2681 4 18 4V0ZM312 2.46763e-05L18 0V4L312 4.00002V2.46763e-05ZM330 18C330 8.0589 321.941 2.55108e-05 312 2.46763e-05V4.00002C319.732 4.00003 326 10.268 326 18H330ZM330 180.679V18H326V180.679H330ZM327.216 182.673C327.467 182.673 327.717 182.675 327.967 182.679L328.033 178.68C327.761 178.675 327.489 178.673 327.216 178.673V182.673ZM282.197 227.692C282.197 202.829 302.353 182.673 327.216 182.673V178.673C300.144 178.673 278.197 200.62 278.197 227.692H282.197ZM327.216 272.711C302.353 272.711 282.197 252.556 282.197 227.692H278.197C278.197 254.765 300.144 276.711 327.216 276.711V272.711ZM327.967 272.705C327.717 272.709 327.467 272.711 327.216 272.711V276.711C327.489 276.711 327.761 276.709 328.033 276.705L327.967 272.705ZM330 437.384V274.705H326V437.384H330Z" fill="#FDFFFC" mask="url(#path-1-outside-1_238_2030)"/>
<path d="M2 18C2 9.16347 9.16344 2 18 2H312C320.836 2 328 9.16344 328 18V158.731H2V18Z" fill="url(#paint1_radial_238_2030)" fill-opacity="0.75"/>
<mask id="mask0_238_2030" style="mask-type:alpha" maskUnits="userSpaceOnUse" x="2" y="2" width="326" height="157">
<path d="M2 18C2 9.16347 9.16344 2 18 2H312C320.836 2 328 9.16344 328 18V158.731H2V18Z" fill="url(#paint2_radial_238_2030)"/>
</mask>
<g mask="url(#mask0_238_2030)">
<g filter="url(#filter0_d_238_2030)">
<path fill-rule="evenodd" clip-rule="evenodd" d="M433.223 9.00459L290.413 -133.805L253.913 -97.3052C252.896 -98.7688 251.734 -100.163 250.429 -101.469C238.711 -113.187 219.822 -113.297 208.24 -101.715C196.657 -90.1324 196.767 -71.2438 208.486 -59.5257C209.791 -58.2202 211.186 -57.0587 212.649 -56.0414L173.236 -16.628L225.142 35.2778C223.782 36.2429 222.485 37.3347 221.266 38.5532C209.548 50.2713 209.548 69.27 221.266 80.988C232.984 92.706 251.983 92.706 263.701 80.988C264.92 79.7695 266.011 78.4722 266.976 77.1126L316.046 126.182L354.485 87.7426C355.434 89.0699 356.505 90.3371 357.697 91.5291C369.415 103.247 388.414 103.247 400.132 91.5291C411.85 79.8111 411.85 60.8124 400.132 49.0944C398.94 47.9024 397.672 46.8317 396.345 45.8822L433.223 9.00459Z" fill="url(#paint3_linear_238_2030)"/>
</g>
</g>
<defs>
<filter id="filter0_d_238_2030" x="158.236" y="-144.805" width="289.987" height="289.987" filterUnits="userSpaceOnUse" color-interpolation-filters="sRGB">
<feFlood flood-opacity="0" result="BackgroundImageFix"/>
<feColorMatrix in="SourceAlpha" type="matrix" values="0 0 0 0 0 0 0 0 0 0 0 0 0 0 0 0 0 0 127 0" result="hardAlpha"/>
<feOffset dy="4"/>
<feGaussianBlur stdDeviation="7.5"/>
<feComposite in2="hardAlpha" operator="out"/>
<feColorMatrix type="matrix" values="0 0 0 0 0 0 0 0 0 0 0 0 0 0 0 0 0 0 0.15 0"/>
<feBlend mode="normal" in2="BackgroundImageFix" result="effect1_dropShadow_238_2030"/>
<feBlend mode="normal" in="SourceGraphic" in2="effect1_dropShadow_238_2030" result="shape"/>
</filter>
<linearGradient id="paint0_linear_238_2030" x1="137.268" y1="477.352" x2="156.923" y2="21.5376" gradientUnits="userSpaceOnUse">
<stop offset="0.0150313" stop-color="#CA4072" stop-opacity="0.35"/>
<stop offset="0.293155" stop-color="#DE5C8E" stop-opacity="0.25"/>
<stop offset="0.913354" stop-color="#FDFFFC" stop-opacity="0.05"/>
</linearGradient>
<radialGradient id="paint1_radial_238_2030" cx="0" cy="0" r="1" gradientUnits="userSpaceOnUse" gradientTransform="translate(328 2.00001) rotate(154.323) scale(361.719 385.747)">
<stop stop-color="#DE87A8"/>
<stop offset="0.261904" stop-color="#CA4072"/>
<stop offset="1" stop-color="#393570"/>
</radialGradient>
<radialGradient id="paint2_radial_238_2030" cx="0" cy="0" r="1" gradientUnits="userSpaceOnUse" gradientTransform="translate(328 2.00001) rotate(154.323) scale(361.719 385.747)">
<stop stop-color="#DE87A8"/>
<stop offset="0.261904" stop-color="#CA4072"/>
<stop offset="1" stop-color="#393570"/>
</radialGradient>
<linearGradient id="paint3_linear_238_2030" x1="348.986" y1="-24.6706" x2="296.77" y2="111.475" gradientUnits="userSpaceOnUse">
<stop stop-color="#DE5C8E"/>
<stop offset="1" stop-color="#DE87A8"/>
</linearGradient>
</defs>
</svg>
