<svg width="24" height="25" viewBox="0 0 24 25" fill="none" xmlns="http://www.w3.org/2000/svg">
<circle cx="12" cy="9.02393" r="1" fill="#FDFFFC"/>
<path fill-rule="evenodd" clip-rule="evenodd" d="M12 2.02393C15.866 2.02393 19 5.15793 19 9.02393C19.14 12.1539 16.63 16.3239 12.81 21.6039C12.6219 21.8637 12.3207 22.0175 12 22.0175C11.6793 22.0175 11.378 21.8637 11.19 21.6039C7.36996 16.3139 4.85996 12.1439 4.99996 9.02393C4.99996 5.15793 8.13396 2.02393 12 2.02393ZM8.99996 9.02393C8.99996 10.6808 10.3431 12.0239 12 12.0239C12.7956 12.0239 13.5587 11.7079 14.1213 11.1452C14.6839 10.5826 15 9.81957 15 9.02393C15 7.36707 13.6568 6.02393 12 6.02393C10.3431 6.02393 8.99996 7.36707 8.99996 9.02393Z" fill="#FDFFFC"/>
</svg>
