<svg width="4366" height="5295" viewBox="0 0 4366 5295" fill="none" xmlns="http://www.w3.org/2000/svg">
    <g filter="url(#filter0_f_117_2758)">
        <path fill-rule="evenodd" clip-rule="evenodd"
            d="M1423.75 1497.96L1423.75 342.713L1128.49 342.713C1130.29 332.679 1131.24 322.341 1131.24 311.78C1131.24 216.988 1055.28 140.145 961.589 140.145C867.895 140.145 791.942 216.988 791.942 311.78C791.942 322.341 792.884 332.679 794.689 342.713L475.858 342.713L475.858 762.602C466.456 761.007 456.794 760.176 446.937 760.176C352.146 760.176 275.302 837.02 275.302 931.811C275.302 1026.6 352.146 1103.45 446.937 1103.45C456.793 1103.45 466.456 1102.62 475.858 1101.02L475.858 1497.96L786.81 1497.96C785.281 1507.17 784.486 1516.62 784.486 1526.27C784.486 1621.06 861.33 1697.9 956.122 1697.9C1050.91 1697.9 1127.76 1621.06 1127.76 1526.27C1127.76 1516.62 1126.96 1507.17 1125.43 1497.96L1423.75 1497.96Z"
            fill="url(#paint0_radial_117_2758)" />
        <path fill-rule="evenodd" clip-rule="evenodd"
            d="M2372.24 1498.34L2372.24 343.092L2076.98 343.092C2078.78 333.058 2079.73 322.72 2079.73 312.159C2079.73 217.367 2003.77 140.523 1910.08 140.523C1816.38 140.523 1740.43 217.367 1740.43 312.159C1740.43 322.72 1741.37 333.058 1743.18 343.092L1424.35 343.092L1424.35 762.981C1414.94 761.385 1405.28 760.555 1395.43 760.555C1300.63 760.555 1223.79 837.398 1223.79 932.19C1223.79 1026.98 1300.63 1103.83 1395.43 1103.83C1405.28 1103.83 1414.94 1103 1424.35 1101.4L1424.35 1498.34L1735.3 1498.34C1733.77 1507.55 1732.97 1517 1732.97 1526.65C1732.97 1621.44 1809.82 1698.28 1904.61 1698.28C1999.4 1698.28 2076.25 1621.44 2076.25 1526.65C2076.25 1517 2075.45 1507.55 2073.92 1498.34L2372.24 1498.34Z"
            fill="url(#paint1_radial_117_2758)" />
        <path fill-rule="evenodd" clip-rule="evenodd"
            d="M1423.75 2652.81L1423.75 1497.57L1128.49 1497.57C1130.29 1487.53 1131.24 1477.19 1131.24 1466.63C1131.24 1371.84 1055.28 1295 961.589 1295C867.895 1295 791.941 1371.84 791.941 1466.63C791.941 1477.19 792.884 1487.53 794.689 1497.57L475.857 1497.57L475.857 1917.45C466.456 1915.86 456.793 1915.03 446.937 1915.03C352.145 1915.03 275.301 1991.87 275.301 2086.66C275.301 2181.46 352.145 2258.3 446.937 2258.3C456.793 2258.3 466.455 2257.47 475.857 2255.87L475.857 2652.81L786.809 2652.81C785.281 2662.02 784.486 2671.48 784.486 2681.12C784.486 2775.91 861.33 2852.76 956.121 2852.76C1050.91 2852.76 1127.76 2775.91 1127.76 2681.12C1127.76 2671.48 1126.96 2662.02 1125.43 2652.81L1423.75 2652.81Z"
            fill="url(#paint2_radial_117_2758)" />
        <path fill-rule="evenodd" clip-rule="evenodd"
            d="M2372.24 2653.19L2372.24 1497.94L2076.98 1497.94C2078.78 1487.91 2079.73 1477.57 2079.73 1467.01C2079.73 1372.22 2003.77 1295.38 1910.08 1295.38C1816.38 1295.38 1740.43 1372.22 1740.43 1467.01C1740.43 1477.57 1741.37 1487.91 1743.18 1497.94L1424.35 1497.94L1424.35 1917.83C1414.94 1916.24 1405.28 1915.41 1395.43 1915.41C1300.63 1915.41 1223.79 1992.25 1223.79 2087.04C1223.79 2181.83 1300.63 2258.68 1395.43 2258.68C1405.28 2258.68 1414.94 2257.85 1424.35 2256.25L1424.35 2653.19L1735.3 2653.19C1733.77 2662.4 1732.97 2671.86 1732.97 2681.5C1732.97 2776.29 1809.82 2853.13 1904.61 2853.13C1999.4 2853.13 2076.25 2776.29 2076.25 2681.5C2076.25 2671.86 2075.45 2662.4 2073.92 2653.19L2372.24 2653.19Z"
            fill="url(#paint3_radial_117_2758)" />
        <path fill-rule="evenodd" clip-rule="evenodd"
            d="M3321.18 1497.96L3321.18 342.713L3025.92 342.713C3027.73 332.679 3028.67 322.341 3028.67 311.78C3028.67 216.988 2952.71 140.145 2859.02 140.145C2765.33 140.145 2689.37 216.988 2689.37 311.78C2689.37 322.341 2690.32 332.679 2692.12 342.713L2373.29 342.713L2373.29 762.602C2363.89 761.006 2354.22 760.176 2344.37 760.176C2249.58 760.176 2172.73 837.02 2172.73 931.811C2172.73 1026.6 2249.58 1103.45 2344.37 1103.45C2354.22 1103.45 2363.89 1102.62 2373.29 1101.02L2373.29 1497.96L2684.24 1497.96C2682.71 1507.17 2681.92 1516.62 2681.92 1526.27C2681.92 1621.06 2758.76 1697.9 2853.55 1697.9C2948.34 1697.9 3025.19 1621.06 3025.19 1526.27C3025.19 1516.62 3024.39 1507.17 3022.87 1497.96L3321.18 1497.96Z"
            fill="url(#paint4_radial_117_2758)" />
        <path fill-rule="evenodd" clip-rule="evenodd"
            d="M3321.18 2652.81L3321.18 1497.57L3025.92 1497.57C3027.73 1487.53 3028.67 1477.19 3028.67 1466.63C3028.67 1371.84 2952.71 1295 2859.02 1295C2765.33 1295 2689.37 1371.84 2689.37 1466.63C2689.37 1477.19 2690.32 1487.53 2692.12 1497.57L2373.29 1497.57L2373.29 1917.45C2363.89 1915.86 2354.23 1915.03 2344.37 1915.03C2249.58 1915.03 2172.73 1991.87 2172.73 2086.66C2172.73 2181.46 2249.58 2258.3 2344.37 2258.3C2354.23 2258.3 2363.89 2257.47 2373.29 2255.87L2373.29 2652.81L2684.24 2652.81C2682.71 2662.02 2681.92 2671.48 2681.92 2681.12C2681.92 2775.91 2758.76 2852.76 2853.55 2852.76C2948.35 2852.76 3025.19 2775.91 3025.19 2681.12C3025.19 2671.48 3024.39 2662.02 3022.87 2652.81L3321.18 2652.81Z"
            fill="url(#paint5_radial_117_2758)" />
        <path fill-rule="evenodd" clip-rule="evenodd"
            d="M4269.67 1498.34L4269.67 343.092L3974.41 343.092C3976.21 333.058 3977.16 322.72 3977.16 312.159C3977.16 217.367 3901.2 140.523 3807.51 140.523C3713.82 140.523 3637.86 217.367 3637.86 312.159C3637.86 322.72 3638.8 333.058 3640.61 343.092L3321.78 343.092L3321.78 762.981C3312.38 761.385 3302.71 760.555 3292.86 760.555C3198.07 760.555 3121.22 837.398 3121.22 932.19C3121.22 1026.98 3198.07 1103.83 3292.86 1103.83C3302.71 1103.83 3312.38 1103 3321.78 1101.4L3321.78 1498.34L3632.73 1498.34C3631.2 1507.55 3630.41 1517 3630.41 1526.65C3630.41 1621.44 3707.25 1698.28 3802.04 1698.28C3896.83 1698.28 3973.68 1621.44 3973.68 1526.65C3973.68 1517 3972.88 1507.55 3971.35 1498.34L4269.67 1498.34Z"
            fill="url(#paint6_radial_117_2758)" />
        <path fill-rule="evenodd" clip-rule="evenodd"
            d="M4269.67 2653.19L4269.67 1497.94L3974.41 1497.94C3976.21 1487.91 3977.16 1477.57 3977.16 1467.01C3977.16 1372.22 3901.2 1295.38 3807.51 1295.38C3713.82 1295.38 3637.86 1372.22 3637.86 1467.01C3637.86 1477.57 3638.8 1487.91 3640.61 1497.94L3321.78 1497.94L3321.78 1917.83C3312.38 1916.24 3302.71 1915.41 3292.86 1915.41C3198.07 1915.41 3121.22 1992.25 3121.22 2087.04C3121.22 2181.83 3198.07 2258.68 3292.86 2258.68C3302.71 2258.68 3312.38 2257.85 3321.78 2256.25L3321.78 2653.19L3632.73 2653.19C3631.2 2662.4 3630.41 2671.86 3630.41 2681.5C3630.41 2776.29 3707.25 2853.13 3802.04 2853.13C3896.83 2853.13 3973.68 2776.29 3973.68 2681.5C3973.68 2671.86 3972.88 2662.4 3971.35 2653.19L4269.67 2653.19Z"
            fill="url(#paint7_radial_117_2758)" />
    </g>
    <g filter="url(#filter1_f_117_2758)">
        <path fill-rule="evenodd" clip-rule="evenodd"
            d="M1425.4 3800.42L1425.4 2645.17L1130.14 2645.17C1131.94 2635.14 1132.88 2624.8 1132.88 2614.24C1132.88 2519.45 1056.93 2442.6 963.235 2442.6C869.542 2442.6 793.588 2519.45 793.588 2614.24C793.588 2624.8 794.531 2635.14 796.336 2645.17L477.504 2645.17L477.504 3065.06C468.102 3063.47 458.44 3062.64 448.584 3062.64C353.792 3062.64 276.948 3139.48 276.948 3234.27C276.948 3329.06 353.792 3405.91 448.584 3405.91C458.44 3405.91 468.102 3405.08 477.504 3403.48L477.504 3800.42L788.456 3800.42C786.928 3809.63 786.132 3819.08 786.132 3828.73C786.132 3923.52 862.976 4000.36 957.768 4000.36C1052.56 4000.36 1129.4 3923.52 1129.4 3828.73C1129.4 3819.08 1128.61 3809.63 1127.08 3800.42L1425.4 3800.42Z"
            fill="url(#paint8_radial_117_2758)" />
        <path fill-rule="evenodd" clip-rule="evenodd"
            d="M2373.89 3800.8L2373.89 2645.55L2078.62 2645.55C2080.43 2635.52 2081.37 2625.18 2081.37 2614.62C2081.37 2519.83 2005.42 2442.98 1911.72 2442.98C1818.03 2442.98 1742.08 2519.83 1742.08 2614.62C1742.08 2625.18 1743.02 2635.52 1744.82 2645.55L1425.99 2645.55L1425.99 3065.44C1416.59 3063.85 1406.93 3063.01 1397.07 3063.01C1302.28 3063.01 1225.44 3139.86 1225.44 3234.65C1225.44 3329.44 1302.28 3406.29 1397.07 3406.29C1406.93 3406.29 1416.59 3405.46 1425.99 3403.86L1425.99 3800.8L1736.94 3800.8C1735.42 3810.01 1734.62 3819.46 1734.62 3829.11C1734.62 3923.9 1811.46 4000.74 1906.26 4000.74C2001.05 4000.74 2077.89 3923.9 2077.89 3829.11C2077.89 3819.46 2077.1 3810.01 2075.57 3800.8L2373.89 3800.8Z"
            fill="url(#paint9_radial_117_2758)" />
        <path fill-rule="evenodd" clip-rule="evenodd"
            d="M1425.4 4955.27L1425.4 3800.03L1130.13 3800.03C1131.94 3789.99 1132.88 3779.65 1132.88 3769.09C1132.88 3674.3 1056.93 3597.46 963.235 3597.46C869.541 3597.46 793.588 3674.3 793.588 3769.09C793.588 3779.65 794.53 3789.99 796.336 3800.03L477.504 3800.03L477.504 4219.91C468.102 4218.32 458.44 4217.49 448.583 4217.49C353.792 4217.49 276.948 4294.33 276.948 4389.12C276.948 4483.92 353.792 4560.76 448.583 4560.76C458.44 4560.76 468.102 4559.93 477.504 4558.33L477.504 4955.27L788.456 4955.27C786.927 4964.48 786.132 4973.94 786.132 4983.58C786.132 5078.37 862.976 5155.22 957.768 5155.22C1052.56 5155.22 1129.4 5078.37 1129.4 4983.58C1129.4 4973.94 1128.61 4964.48 1127.08 4955.27L1425.4 4955.27Z"
            fill="url(#paint10_radial_117_2758)" />
        <path fill-rule="evenodd" clip-rule="evenodd"
            d="M2373.89 4955.65L2373.89 3800.4L2078.62 3800.4C2080.43 3790.37 2081.37 3780.03 2081.37 3769.47C2081.37 3674.68 2005.42 3597.84 1911.72 3597.84C1818.03 3597.84 1742.08 3674.68 1742.08 3769.47C1742.08 3780.03 1743.02 3790.37 1744.82 3800.4L1425.99 3800.4L1425.99 4220.29C1416.59 4218.7 1406.93 4217.87 1397.07 4217.87C1302.28 4217.87 1225.44 4294.71 1225.44 4389.5C1225.44 4484.29 1302.28 4561.14 1397.07 4561.14C1406.93 4561.14 1416.59 4560.31 1425.99 4558.71L1425.99 4955.65L1736.94 4955.65C1735.42 4964.86 1734.62 4974.32 1734.62 4983.96C1734.62 5078.75 1811.47 5155.59 1906.26 5155.59C2001.05 5155.59 2077.89 5078.75 2077.89 4983.96C2077.89 4974.32 2077.1 4964.86 2075.57 4955.65L2373.89 4955.65Z"
            fill="url(#paint11_radial_117_2758)" />
        <path fill-rule="evenodd" clip-rule="evenodd"
            d="M3322.83 3800.42L3322.83 2645.17L3027.57 2645.17C3029.37 2635.14 3030.31 2624.8 3030.31 2614.24C3030.31 2519.45 2954.36 2442.6 2860.67 2442.6C2766.97 2442.6 2691.02 2519.45 2691.02 2614.24C2691.02 2624.8 2691.96 2635.14 2693.77 2645.17L2374.94 2645.17L2374.94 3065.06C2365.53 3063.47 2355.87 3062.64 2346.01 3062.64C2251.22 3062.64 2174.38 3139.48 2174.38 3234.27C2174.38 3329.06 2251.22 3405.91 2346.01 3405.91C2355.87 3405.91 2365.53 3405.08 2374.94 3403.48L2374.94 3800.42L2685.89 3800.42C2684.36 3809.63 2683.56 3819.08 2683.56 3828.73C2683.56 3923.52 2760.41 4000.36 2855.2 4000.36C2949.99 4000.36 3026.84 3923.52 3026.84 3828.73C3026.84 3819.08 3026.04 3809.63 3024.51 3800.42L3322.83 3800.42Z"
            fill="url(#paint12_radial_117_2758)" />
        <path fill-rule="evenodd" clip-rule="evenodd"
            d="M3322.83 4955.27L3322.83 3800.03L3027.57 3800.03C3029.37 3789.99 3030.31 3779.65 3030.31 3769.09C3030.31 3674.3 2954.36 3597.46 2860.67 3597.46C2766.97 3597.46 2691.02 3674.3 2691.02 3769.09C2691.02 3779.65 2691.96 3789.99 2693.77 3800.03L2374.94 3800.03L2374.94 4219.91C2365.53 4218.32 2355.87 4217.49 2346.02 4217.49C2251.22 4217.49 2174.38 4294.33 2174.38 4389.12C2174.38 4483.92 2251.22 4560.76 2346.02 4560.76C2355.87 4560.76 2365.53 4559.93 2374.94 4558.33L2374.94 4955.27L2685.89 4955.27C2684.36 4964.48 2683.56 4973.94 2683.56 4983.58C2683.56 5078.37 2760.41 5155.22 2855.2 5155.22C2949.99 5155.22 3026.84 5078.37 3026.84 4983.58C3026.84 4973.94 3026.04 4964.48 3024.51 4955.27L3322.83 4955.27Z"
            fill="url(#paint13_radial_117_2758)" />
        <path fill-rule="evenodd" clip-rule="evenodd"
            d="M4271.32 3800.8L4271.32 2645.55L3976.06 2645.55C3977.86 2635.52 3978.8 2625.18 3978.8 2614.62C3978.8 2519.83 3902.85 2442.98 3809.16 2442.98C3715.46 2442.98 3639.51 2519.83 3639.51 2614.62C3639.51 2625.18 3640.45 2635.52 3642.26 2645.55L3323.42 2645.55L3323.42 3065.44C3314.02 3063.85 3304.36 3063.01 3294.5 3063.01C3199.71 3063.01 3122.87 3139.86 3122.87 3234.65C3122.87 3329.44 3199.71 3406.29 3294.5 3406.29C3304.36 3406.29 3314.02 3405.46 3323.42 3403.86L3323.42 3800.8L3634.38 3800.8C3632.85 3810.01 3632.05 3819.46 3632.05 3829.11C3632.05 3923.9 3708.9 4000.74 3803.69 4000.74C3898.48 4000.74 3975.32 3923.9 3975.32 3829.11C3975.32 3819.46 3974.53 3810.01 3973 3800.8L4271.32 3800.8Z"
            fill="url(#paint14_radial_117_2758)" />
        <path fill-rule="evenodd" clip-rule="evenodd"
            d="M4271.32 4955.65L4271.32 3800.4L3976.06 3800.4C3977.86 3790.37 3978.8 3780.03 3978.8 3769.47C3978.8 3674.68 3902.85 3597.84 3809.16 3597.84C3715.46 3597.84 3639.51 3674.68 3639.51 3769.47C3639.51 3780.03 3640.45 3790.37 3642.26 3800.4L3323.42 3800.4L3323.42 4220.29C3314.02 4218.7 3304.36 4217.87 3294.5 4217.87C3199.71 4217.87 3122.87 4294.71 3122.87 4389.5C3122.87 4484.29 3199.71 4561.14 3294.5 4561.14C3304.36 4561.14 3314.02 4560.31 3323.42 4558.71L3323.42 4955.65L3634.38 4955.65C3632.85 4964.86 3632.05 4974.32 3632.05 4983.96C3632.05 5078.75 3708.9 5155.59 3803.69 5155.59C3898.48 5155.59 3975.32 5078.75 3975.32 4983.96C3975.32 4974.32 3974.53 4964.86 3973 4955.65L4271.32 4955.65Z"
            fill="url(#paint15_radial_117_2758)" />
    </g>
    <defs>
        <filter id="filter0_f_117_2758" x="271.301" y="136.145" width="4002.37" height="2720.99"
            filterUnits="userSpaceOnUse" color-interpolation-filters="sRGB">
            <feFlood flood-opacity="0" result="BackgroundImageFix" />
            <feBlend mode="normal" in="SourceGraphic" in2="BackgroundImageFix" result="shape" />
            <feGaussianBlur stdDeviation="2" result="effect1_foregroundBlur_117_2758" />
        </filter>
        <filter id="filter1_f_117_2758" x="272.948" y="2438.6" width="4002.37" height="2720.99"
            filterUnits="userSpaceOnUse" color-interpolation-filters="sRGB">
            <feFlood flood-opacity="0" result="BackgroundImageFix" />
            <feBlend mode="normal" in="SourceGraphic" in2="BackgroundImageFix" result="shape" />
            <feGaussianBlur stdDeviation="2" result="effect1_foregroundBlur_117_2758" />
        </filter>
        <radialGradient id="paint0_radial_117_2758" cx="0" cy="0" r="1" gradientUnits="userSpaceOnUse"
            gradientTransform="translate(531.556 108.667) rotate(47.2381) scale(1701.31 2133.65)">
            <stop stop-color="#FDFFFC" />
            <stop offset="0.267113" stop-color="#DE87A8" />
            <stop offset="0.562705" stop-color="#CA4072" />
            <stop offset="1" stop-color="#393570" />
        </radialGradient>
        <radialGradient id="paint1_radial_117_2758" cx="0" cy="0" r="1" gradientUnits="userSpaceOnUse"
            gradientTransform="translate(2668.13 344.376) rotate(128.46) scale(1656.78 2077.8)">
            <stop stop-color="#FDFFFC" />
            <stop offset="0.267113" stop-color="#DE87A8" />
            <stop offset="0.657738" stop-color="#CA4072" />
            <stop offset="1" stop-color="#393570" />
        </radialGradient>
        <radialGradient id="paint2_radial_117_2758" cx="0" cy="0" r="1" gradientUnits="userSpaceOnUse"
            gradientTransform="translate(1749.05 2451.08) rotate(-163.604) scale(1813.96 2086.02)">
            <stop stop-color="#FDFFFC" />
            <stop offset="0.267113" stop-color="#DE87A8" />
            <stop offset="0.657738" stop-color="#CA4072" />
            <stop offset="1" stop-color="#393570" />
        </radialGradient>
        <radialGradient id="paint3_radial_117_2758" cx="0" cy="0" r="1" gradientUnits="userSpaceOnUse"
            gradientTransform="translate(1202.25 1905.67) rotate(18.3517) scale(1452.76 2661.18)">
            <stop stop-color="#FDFFFC" />
            <stop offset="0.267113" stop-color="#DE87A8" />
            <stop offset="0.615985" stop-color="#CA4072" />
            <stop offset="0.970944" stop-color="#393570" />
        </radialGradient>
        <radialGradient id="paint4_radial_117_2758" cx="0" cy="0" r="1" gradientUnits="userSpaceOnUse"
            gradientTransform="translate(3460.12 1370.61) rotate(-106.44) scale(1633.86 2049.06)">
            <stop stop-color="#FDFFFC" />
            <stop offset="0.267113" stop-color="#DE87A8" />
            <stop offset="0.657738" stop-color="#CA4072" />
            <stop offset="1" stop-color="#393570" />
        </radialGradient>
        <radialGradient id="paint5_radial_117_2758" cx="0" cy="0" r="1" gradientUnits="userSpaceOnUse"
            gradientTransform="translate(3584.5 1911.31) rotate(162.741) scale(1593.16 1998.02)">
            <stop stop-color="#FDFFFC" />
            <stop offset="0.267113" stop-color="#DE87A8" />
            <stop offset="0.657738" stop-color="#CA4072" />
            <stop offset="1" stop-color="#393570" />
        </radialGradient>
        <radialGradient id="paint6_radial_117_2758" cx="0" cy="0" r="1" gradientUnits="userSpaceOnUse"
            gradientTransform="translate(4017.49 -29.2593) rotate(102.834) scale(1912.59 2398.62)">
            <stop stop-color="#FDFFFC" />
            <stop offset="0.267113" stop-color="#DE87A8" />
            <stop offset="0.657738" stop-color="#CA4072" />
            <stop offset="1" stop-color="#393570" />
        </radialGradient>
        <radialGradient id="paint7_radial_117_2758" cx="0" cy="0" r="1" gradientUnits="userSpaceOnUse"
            gradientTransform="translate(3586.14 2939) rotate(-85.5818) scale(1884.18 2362.98)">
            <stop stop-color="#FDFFFC" />
            <stop offset="0.267113" stop-color="#DE87A8" />
            <stop offset="0.657738" stop-color="#CA4072" />
            <stop offset="1" stop-color="#393570" />
        </radialGradient>
        <radialGradient id="paint8_radial_117_2758" cx="0" cy="0" r="1" gradientUnits="userSpaceOnUse"
            gradientTransform="translate(533.203 2411.13) rotate(47.2381) scale(1701.31 2133.65)">
            <stop stop-color="#FDFFFC" />
            <stop offset="0.267113" stop-color="#DE87A8" />
            <stop offset="0.562705" stop-color="#CA4072" />
            <stop offset="1" stop-color="#393570" />
        </radialGradient>
        <radialGradient id="paint9_radial_117_2758" cx="0" cy="0" r="1" gradientUnits="userSpaceOnUse"
            gradientTransform="translate(2669.78 2646.84) rotate(128.46) scale(1656.78 2077.8)">
            <stop stop-color="#FDFFFC" />
            <stop offset="0.267113" stop-color="#DE87A8" />
            <stop offset="0.657738" stop-color="#CA4072" />
            <stop offset="1" stop-color="#393570" />
        </radialGradient>
        <radialGradient id="paint10_radial_117_2758" cx="0" cy="0" r="1" gradientUnits="userSpaceOnUse"
            gradientTransform="translate(1750.7 4753.54) rotate(-163.604) scale(1813.96 2086.02)">
            <stop stop-color="#FDFFFC" />
            <stop offset="0.267113" stop-color="#DE87A8" />
            <stop offset="0.657738" stop-color="#CA4072" />
            <stop offset="1" stop-color="#393570" />
        </radialGradient>
        <radialGradient id="paint11_radial_117_2758" cx="0" cy="0" r="1" gradientUnits="userSpaceOnUse"
            gradientTransform="translate(1203.9 4208.13) rotate(18.3517) scale(1452.76 2661.18)">
            <stop stop-color="#FDFFFC" />
            <stop offset="0.267113" stop-color="#DE87A8" />
            <stop offset="0.615985" stop-color="#CA4072" />
            <stop offset="0.970944" stop-color="#393570" />
        </radialGradient>
        <radialGradient id="paint12_radial_117_2758" cx="0" cy="0" r="1" gradientUnits="userSpaceOnUse"
            gradientTransform="translate(3461.77 3673.07) rotate(-106.44) scale(1633.86 2049.06)">
            <stop stop-color="#FDFFFC" />
            <stop offset="0.267113" stop-color="#DE87A8" />
            <stop offset="0.657738" stop-color="#CA4072" />
            <stop offset="1" stop-color="#393570" />
        </radialGradient>
        <radialGradient id="paint13_radial_117_2758" cx="0" cy="0" r="1" gradientUnits="userSpaceOnUse"
            gradientTransform="translate(3586.15 4213.77) rotate(162.741) scale(1593.16 1998.02)">
            <stop stop-color="#FDFFFC" />
            <stop offset="0.267113" stop-color="#DE87A8" />
            <stop offset="0.657738" stop-color="#CA4072" />
            <stop offset="1" stop-color="#393570" />
        </radialGradient>
        <radialGradient id="paint14_radial_117_2758" cx="0" cy="0" r="1" gradientUnits="userSpaceOnUse"
            gradientTransform="translate(4019.14 2273.2) rotate(102.834) scale(1912.59 2398.62)">
            <stop stop-color="#FDFFFC" />
            <stop offset="0.267113" stop-color="#DE87A8" />
            <stop offset="0.657738" stop-color="#CA4072" />
            <stop offset="1" stop-color="#393570" />
        </radialGradient>
        <radialGradient id="paint15_radial_117_2758" cx="0" cy="0" r="1" gradientUnits="userSpaceOnUse"
            gradientTransform="translate(3587.79 5241.46) rotate(-85.5818) scale(1884.18 2362.98)">
            <stop stop-color="#FDFFFC" />
            <stop offset="0.267113" stop-color="#DE87A8" />
            <stop offset="0.657738" stop-color="#CA4072" />
            <stop offset="1" stop-color="#393570" />
        </radialGradient>
    </defs>
</svg>
