<svg width="229" height="388" viewBox="0 0 229 388" fill="none" xmlns="http://www.w3.org/2000/svg">
<g filter="url(#filter0_bi_321_17386)">
<mask id="path-1-outside-1_321_17386" maskUnits="userSpaceOnUse" x="0.818359" y="-0.0770264" width="228" height="388" fill="black">
<rect fill="white" x="0.818359" y="-0.0770264" width="228" height="388"/>
<path fill-rule="evenodd" clip-rule="evenodd" d="M4.27987 122.001C31.0444 122.001 52.7414 143.698 52.7414 170.463C52.7414 197.228 31.0444 218.925 4.27987 218.925C3.79098 218.925 3.30378 218.917 2.81837 218.903L2.81836 322.001C2.81836 330.838 9.98181 338.001 18.8184 338.001L66.0029 338.001C66.2922 364.517 87.877 385.923 114.462 385.923C141.046 385.923 162.631 364.517 162.92 338.001L210.818 338.001C219.655 338.001 226.818 330.838 226.818 322.001L226.818 18.0009C226.818 9.1644 219.655 2.00095 210.818 2.00095L18.8184 2.00092C9.98184 2.00092 2.81839 9.16437 2.81839 18.0009L2.81838 122.023C3.30379 122.009 3.79098 122.001 4.27987 122.001Z"/>
</mask>
<path fill-rule="evenodd" clip-rule="evenodd" d="M4.27987 122.001C31.0444 122.001 52.7414 143.698 52.7414 170.463C52.7414 197.228 31.0444 218.925 4.27987 218.925C3.79098 218.925 3.30378 218.917 2.81837 218.903L2.81836 322.001C2.81836 330.838 9.98181 338.001 18.8184 338.001L66.0029 338.001C66.2922 364.517 87.877 385.923 114.462 385.923C141.046 385.923 162.631 364.517 162.92 338.001L210.818 338.001C219.655 338.001 226.818 330.838 226.818 322.001L226.818 18.0009C226.818 9.1644 219.655 2.00095 210.818 2.00095L18.8184 2.00092C9.98184 2.00092 2.81839 9.16437 2.81839 18.0009L2.81838 122.023C3.30379 122.009 3.79098 122.001 4.27987 122.001Z" fill="url(#paint0_linear_321_17386)"/>
<path d="M2.81837 218.903L2.87757 216.904L0.81837 216.843L0.81837 218.903L2.81837 218.903ZM2.81836 322.001L4.81836 322.001L2.81836 322.001ZM18.8184 338.001L18.8184 336.001L18.8184 338.001ZM66.0029 338.001L68.0028 337.979L67.9812 336.001L66.0029 336.001L66.0029 338.001ZM162.92 338.001L162.92 336.001L160.942 336.001L160.92 337.979L162.92 338.001ZM210.818 338.001L210.818 340.001L210.818 338.001ZM226.818 322.001L224.818 322.001L226.818 322.001ZM226.818 18.0009L228.818 18.0009L226.818 18.0009ZM210.818 2.00095L210.818 4.00095L210.818 2.00095ZM18.8184 2.00092L18.8184 0.00091571L18.8184 2.00092ZM2.81839 18.0009L0.81839 18.0009L2.81839 18.0009ZM2.81838 122.023L0.81838 122.023L0.818379 124.083L2.87758 124.022L2.81838 122.023ZM54.7414 170.463C54.7414 142.594 32.149 120.001 4.27987 120.001L4.27987 124.001C29.9399 124.001 50.7414 144.803 50.7414 170.463L54.7414 170.463ZM4.27987 220.925C32.149 220.925 54.7414 198.332 54.7414 170.463L50.7414 170.463C50.7414 196.123 29.9399 216.925 4.27987 216.925L4.27987 220.925ZM2.75917 220.902C3.26428 220.917 3.77121 220.925 4.27987 220.925L4.27987 216.925C3.81075 216.925 3.34328 216.918 2.87757 216.904L2.75917 220.902ZM4.81836 322.001L4.81837 218.903L0.81837 218.903L0.81836 322.001L4.81836 322.001ZM18.8184 336.001C11.0864 336.001 4.81836 329.733 4.81836 322.001L0.81836 322.001C0.818359 331.942 8.87724 340.001 18.8184 340.001L18.8184 336.001ZM66.0029 336.001L18.8184 336.001L18.8184 340.001L66.0029 340.001L66.0029 336.001ZM114.462 383.923C88.9743 383.923 68.2801 363.4 68.0028 337.979L64.003 338.023C64.3042 365.634 86.7798 387.923 114.462 387.923L114.462 383.923ZM160.92 337.979C160.643 363.4 139.949 383.923 114.462 383.923L114.462 387.923C142.143 387.923 164.619 365.634 164.92 338.023L160.92 337.979ZM210.818 336.001L162.92 336.001L162.92 340.001L210.818 340.001L210.818 336.001ZM224.818 322.001C224.818 329.733 218.55 336.001 210.818 336.001L210.818 340.001C220.759 340.001 228.818 331.942 228.818 322.001L224.818 322.001ZM224.818 18.0009L224.818 322.001L228.818 322.001L228.818 18.0009L224.818 18.0009ZM210.818 4.00095C218.55 4.00095 224.818 10.269 224.818 18.0009L228.818 18.0009C228.818 8.05982 220.759 0.000948528 210.818 0.000948415L210.818 4.00095ZM18.8184 4.00092L210.818 4.00095L210.818 0.000948415L18.8184 0.00091571L18.8184 4.00092ZM4.81839 18.0009C4.81839 10.269 11.0864 4.00092 18.8184 4.00092L18.8184 0.00091571C8.87727 0.000915596 0.818391 8.05978 0.81839 18.0009L4.81839 18.0009ZM4.81838 122.023L4.81839 18.0009L0.81839 18.0009L0.81838 122.023L4.81838 122.023ZM4.27987 120.001C3.77126 120.001 3.26432 120.009 2.75918 120.024L2.87758 124.022C3.34325 124.008 3.81071 124.001 4.27987 124.001L4.27987 120.001Z" fill="#FDFFFC" mask="url(#path-1-outside-1_321_17386)"/>
</g>
<defs>
<filter id="filter0_bi_321_17386" x="-74.1816" y="-74.9991" width="378" height="537.922" filterUnits="userSpaceOnUse" color-interpolation-filters="sRGB">
<feFlood flood-opacity="0" result="BackgroundImageFix"/>
<feGaussianBlur in="BackgroundImageFix" stdDeviation="37.5"/>
<feComposite in2="SourceAlpha" operator="in" result="effect1_backgroundBlur_321_17386"/>
<feBlend mode="normal" in="SourceGraphic" in2="effect1_backgroundBlur_321_17386" result="shape"/>
<feColorMatrix in="SourceAlpha" type="matrix" values="0 0 0 0 0 0 0 0 0 0 0 0 0 0 0 0 0 0 127 0" result="hardAlpha"/>
<feOffset dy="-5"/>
<feGaussianBlur stdDeviation="7.5"/>
<feComposite in2="hardAlpha" operator="arithmetic" k2="-1" k3="1"/>
<feColorMatrix type="matrix" values="0 0 0 0 1 0 0 0 0 1 0 0 0 0 1 0 0 0 0.65 0"/>
<feBlend mode="normal" in2="shape" result="effect2_innerShadow_321_17386"/>
</filter>
<linearGradient id="paint0_linear_321_17386" x1="216.458" y1="226.621" x2="11.2739" y2="223.244" gradientUnits="userSpaceOnUse">
<stop offset="0.0150313" stop-color="#CA4072" stop-opacity="0.35"/>
<stop offset="0.293155" stop-color="#DE5C8E" stop-opacity="0.25"/>
<stop offset="0.913354" stop-color="#FDFFFC" stop-opacity="0.05"/>
</linearGradient>
</defs>
</svg>
