<svg width="308" height="363" viewBox="0 0 308 363" fill="none" xmlns="http://www.w3.org/2000/svg">
<g filter="url(#filter0_bi_349_2812)">
<mask id="path-1-outside-1_349_2812" maskUnits="userSpaceOnUse" x="-4.04063e-06" y="-2.54095e-08" width="308" height="363" fill="black">
<rect fill="white" x="-4.04063e-06" y="-2.54095e-08" width="308" height="363"/>
<path fill-rule="evenodd" clip-rule="evenodd" d="M197.561 3.32307C197.561 27.5551 177.917 47.199 153.685 47.199C129.453 47.199 109.809 27.5551 109.809 3.32307C109.809 2.88049 109.816 2.43944 109.829 2.00001L16.4861 2C8.48565 2 2.00003 8.48563 2.00003 16.4861L2 301.514C2 309.514 8.48562 316 16.486 316L111.002 316C111.001 316.125 111 316.251 111 316.376C111 340.884 130.644 360.752 154.876 360.752C179.108 360.752 198.752 340.884 198.752 316.376C198.752 316.251 198.751 316.125 198.75 316L291.514 316C299.514 316 306 309.514 306 301.514L306 16.4861C306 8.48565 299.514 2.00003 291.514 2.00003L197.542 2.00002C197.555 2.43944 197.561 2.88049 197.561 3.32307Z"/>
</mask>
<path fill-rule="evenodd" clip-rule="evenodd" d="M197.561 3.32307C197.561 27.5551 177.917 47.199 153.685 47.199C129.453 47.199 109.809 27.5551 109.809 3.32307C109.809 2.88049 109.816 2.43944 109.829 2.00001L16.4861 2C8.48565 2 2.00003 8.48563 2.00003 16.4861L2 301.514C2 309.514 8.48562 316 16.486 316L111.002 316C111.001 316.125 111 316.251 111 316.376C111 340.884 130.644 360.752 154.876 360.752C179.108 360.752 198.752 340.884 198.752 316.376C198.752 316.251 198.751 316.125 198.75 316L291.514 316C299.514 316 306 309.514 306 301.514L306 16.4861C306 8.48565 299.514 2.00003 291.514 2.00003L197.542 2.00002C197.555 2.43944 197.561 2.88049 197.561 3.32307Z" fill="url(#paint0_linear_349_2812)"/>
<path d="M109.829 2.00001L111.639 2.05362L111.694 0.189253L109.829 0.189253L109.829 2.00001ZM16.4861 2L16.4861 0.189244L16.4861 2ZM2.00003 16.4861L3.81078 16.4861L2.00003 16.4861ZM2 301.514L0.189241 301.514L2 301.514ZM16.486 316L16.486 317.811L16.486 316ZM111.002 316L112.812 316.015L112.827 314.189L111.002 314.189L111.002 316ZM198.75 316L198.75 314.189L196.925 314.189L196.94 316.015L198.75 316ZM291.514 316L291.514 317.811L291.514 316ZM306 301.514L304.189 301.514L306 301.514ZM306 16.4861L307.811 16.4861L306 16.4861ZM291.514 2.00003L291.514 0.189271L291.514 2.00003ZM197.542 2.00002L197.542 0.189262L195.677 0.189262L195.732 2.05363L197.542 2.00002ZM153.685 49.0098C178.918 49.0098 199.372 28.5552 199.372 3.32307L195.751 3.32307C195.751 26.5551 176.917 45.3883 153.685 45.3883L153.685 49.0098ZM107.999 3.32307C107.999 28.5552 128.453 49.0098 153.685 49.0098L153.685 45.3883C130.453 45.3883 111.62 26.555 111.62 3.32307L107.999 3.32307ZM108.019 1.9464C108.006 2.40369 107.999 2.86261 107.999 3.32307L111.62 3.32307C111.62 2.89836 111.627 2.47519 111.639 2.05362L108.019 1.9464ZM16.4861 3.81076L109.829 3.81077L109.829 0.189253L16.4861 0.189244L16.4861 3.81076ZM3.81078 16.4861C3.81078 9.48568 9.48571 3.81076 16.4861 3.81076L16.4861 0.189244C7.4856 0.189244 0.189271 7.48558 0.18927 16.4861L3.81078 16.4861ZM3.81075 301.514L3.81078 16.4861L0.18927 16.4861L0.189241 301.514L3.81075 301.514ZM16.486 314.189C9.48567 314.189 3.81075 308.514 3.81075 301.514L0.189241 301.514C0.189241 310.514 7.48557 317.811 16.486 317.811L16.486 314.189ZM111.002 314.189L16.486 314.189L16.486 317.811L111.002 317.811L111.002 314.189ZM112.811 316.376C112.811 316.255 112.811 316.135 112.812 316.015L109.191 315.985C109.19 316.115 109.189 316.246 109.189 316.376L112.811 316.376ZM154.876 358.941C131.663 358.941 112.811 339.904 112.811 316.376L109.189 316.376C109.189 341.865 129.625 362.563 154.876 362.563L154.876 358.941ZM196.941 316.376C196.941 339.904 178.089 358.941 154.876 358.941L154.876 362.563C180.127 362.563 200.563 341.865 200.563 316.376L196.941 316.376ZM196.94 316.015C196.941 316.135 196.941 316.256 196.941 316.376L200.563 316.376C200.563 316.246 200.562 316.115 200.561 315.985L196.94 316.015ZM291.514 314.189L198.75 314.189L198.75 317.811L291.514 317.811L291.514 314.189ZM304.189 301.514C304.189 308.514 298.514 314.189 291.514 314.189L291.514 317.811C300.514 317.811 307.811 310.514 307.811 301.514L304.189 301.514ZM304.189 16.4861L304.189 301.514L307.811 301.514L307.811 16.4861L304.189 16.4861ZM291.514 3.81078C298.514 3.81078 304.189 9.48571 304.189 16.4861L307.811 16.4861C307.811 7.4856 300.514 0.189272 291.514 0.189271L291.514 3.81078ZM197.542 3.81077L291.514 3.81078L291.514 0.189271L197.542 0.189262L197.542 3.81077ZM199.372 3.32307C199.372 2.86263 199.365 2.40371 199.352 1.94641L195.732 2.05363C195.744 2.47517 195.751 2.89835 195.751 3.32307L199.372 3.32307Z" fill="#FDFFFC" mask="url(#path-1-outside-1_349_2812)"/>
</g>
<defs>
<filter id="filter0_bi_349_2812" x="-67.7141" y="-67.7139" width="443.428" height="498.18" filterUnits="userSpaceOnUse" color-interpolation-filters="sRGB">
<feFlood flood-opacity="0" result="BackgroundImageFix"/>
<feGaussianBlur in="BackgroundImageFix" stdDeviation="33.9517"/>
<feComposite in2="SourceAlpha" operator="in" result="effect1_backgroundBlur_349_2812"/>
<feBlend mode="normal" in="SourceGraphic" in2="effect1_backgroundBlur_349_2812" result="shape"/>
<feColorMatrix in="SourceAlpha" type="matrix" values="0 0 0 0 0 0 0 0 0 0 0 0 0 0 0 0 0 0 127 0" result="hardAlpha"/>
<feOffset dy="-4.52689"/>
<feGaussianBlur stdDeviation="6.79033"/>
<feComposite in2="hardAlpha" operator="arithmetic" k2="-1" k3="1"/>
<feColorMatrix type="matrix" values="0 0 0 0 1 0 0 0 0 1 0 0 0 0 1 0 0 0 0.65 0"/>
<feBlend mode="normal" in2="shape" result="effect2_innerShadow_349_2812"/>
</filter>
<linearGradient id="paint0_linear_349_2812" x1="128.14" y1="344.16" x2="139.068" y2="15.8169" gradientUnits="userSpaceOnUse">
<stop offset="0.0150313" stop-color="#CA4072" stop-opacity="0.35"/>
<stop offset="0.293155" stop-color="#DE5C8E" stop-opacity="0.25"/>
<stop offset="0.913354" stop-color="#FDFFFC" stop-opacity="0.05"/>
</linearGradient>
</defs>
</svg>
