<svg width="309" height="469" viewBox="0 0 309 469" fill="none" xmlns="http://www.w3.org/2000/svg">
<g filter="url(#filter0_bi_349_2787)">
<mask id="path-1-outside-1_349_2787" maskUnits="userSpaceOnUse" x="0.79272" y="0.000976536" width="309" height="469" fill="black">
<rect fill="white" x="0.79272" y="0.000976536" width="309" height="469"/>
<path fill-rule="evenodd" clip-rule="evenodd" d="M307 408.724C307 416.725 300.514 423.21 292.514 423.21L198.772 423.21C198.772 423.211 198.772 423.211 198.772 423.212C198.772 447.444 179.128 467.088 154.896 467.088C130.664 467.088 111.02 447.444 111.02 423.212C111.02 423.211 111.02 423.211 111.02 423.21L17.2788 423.21C9.27834 423.21 2.79272 416.725 2.79272 408.724L2.79276 16.487C2.79276 8.48661 9.27839 2.00098 17.2788 2.00098L292.514 2.001C300.514 2.001 307 8.48663 307 16.4871L307 168.736C306.756 168.732 306.513 168.73 306.268 168.73C282.036 168.73 262.392 188.374 262.392 212.606C262.392 236.839 282.036 256.482 306.268 256.482C306.513 256.482 306.756 256.48 307 256.476L307 408.724Z"/>
</mask>
<path fill-rule="evenodd" clip-rule="evenodd" d="M307 408.724C307 416.725 300.514 423.21 292.514 423.21L198.772 423.21C198.772 423.211 198.772 423.211 198.772 423.212C198.772 447.444 179.128 467.088 154.896 467.088C130.664 467.088 111.02 447.444 111.02 423.212C111.02 423.211 111.02 423.211 111.02 423.21L17.2788 423.21C9.27834 423.21 2.79272 416.725 2.79272 408.724L2.79276 16.487C2.79276 8.48661 9.27839 2.00098 17.2788 2.00098L292.514 2.001C300.514 2.001 307 8.48663 307 16.4871L307 168.736C306.756 168.732 306.513 168.73 306.268 168.73C282.036 168.73 262.392 188.374 262.392 212.606C262.392 236.839 282.036 256.482 306.268 256.482C306.513 256.482 306.756 256.48 307 256.476L307 408.724Z" fill="url(#paint0_linear_349_2787)"/>
<path d="M198.772 423.21L198.772 421.4L196.961 421.4L196.961 423.21L198.772 423.21ZM111.02 423.21L112.831 423.21L112.831 421.4L111.02 421.4L111.02 423.21ZM2.79272 408.724L0.981964 408.724L2.79272 408.724ZM2.79276 16.487L4.60352 16.487L2.79276 16.487ZM17.2788 2.00098L17.2788 0.190221L17.2788 2.00098ZM292.514 2.001L292.514 0.190248L292.514 2.001ZM307 168.736L306.97 170.547L308.81 170.577L308.81 168.736L307 168.736ZM307 256.476L308.81 256.476L308.81 254.636L306.97 254.666L307 256.476ZM292.514 425.021C301.514 425.021 308.81 417.725 308.81 408.724L305.189 408.724C305.189 415.725 299.514 421.4 292.514 421.4L292.514 425.021ZM198.772 425.021L292.514 425.021L292.514 421.4L198.772 421.4L198.772 425.021ZM196.961 423.21C196.961 423.21 196.961 423.21 196.961 423.21C196.961 423.211 196.961 423.211 196.961 423.211L196.961 423.211L196.961 423.211C196.961 423.211 196.961 423.211 196.961 423.211C196.961 423.211 196.961 423.211 196.961 423.211C196.961 423.211 196.961 423.211 196.961 423.211L196.961 423.211C196.961 423.211 196.961 423.211 196.961 423.211C196.961 423.211 196.961 423.211 196.961 423.211C196.961 423.211 196.961 423.211 196.961 423.211C196.961 423.211 196.961 423.211 196.961 423.211C196.961 423.211 196.961 423.211 196.961 423.211C196.961 423.211 196.961 423.211 196.961 423.211C196.961 423.211 196.961 423.211 196.961 423.211C196.961 423.211 196.961 423.211 196.961 423.211L196.961 423.211L196.961 423.211L196.961 423.211L196.961 423.211L196.961 423.211L196.961 423.211L196.961 423.211L196.961 423.211L196.961 423.211L196.961 423.211L196.961 423.211L196.961 423.211L196.961 423.211L196.961 423.211C196.961 423.211 196.961 423.211 196.961 423.211C196.961 423.211 196.961 423.211 196.961 423.211C196.961 423.211 196.961 423.211 196.961 423.211C196.961 423.211 196.961 423.211 196.961 423.211C196.961 423.211 196.961 423.211 196.961 423.212C196.961 423.212 196.961 423.212 196.961 423.212C196.961 423.212 196.961 423.212 196.961 423.212C196.961 423.212 196.961 423.212 196.961 423.212L196.961 423.212C196.961 423.212 196.961 423.212 196.961 423.212C196.961 423.212 196.961 423.212 196.961 423.212C196.961 423.212 196.961 423.212 196.961 423.212L196.961 423.212L196.961 423.212C196.961 423.212 196.961 423.212 196.961 423.212C196.961 423.212 196.961 423.212 196.961 423.212L200.583 423.212C200.583 423.212 200.583 423.212 200.583 423.212C200.583 423.212 200.583 423.212 200.583 423.212L200.583 423.212L200.583 423.212C200.583 423.212 200.583 423.212 200.583 423.212C200.583 423.212 200.583 423.212 200.583 423.212C200.583 423.212 200.583 423.212 200.583 423.212L200.583 423.212C200.583 423.212 200.583 423.212 200.583 423.212C200.583 423.212 200.583 423.212 200.583 423.212C200.583 423.212 200.583 423.212 200.583 423.212C200.583 423.211 200.583 423.211 200.583 423.211C200.583 423.211 200.583 423.211 200.583 423.211C200.583 423.211 200.583 423.211 200.583 423.211C200.583 423.211 200.583 423.211 200.583 423.211C200.583 423.211 200.583 423.211 200.583 423.211L200.583 423.211L200.583 423.211L200.583 423.211L200.583 423.211L200.583 423.211L200.583 423.211L200.583 423.211L200.583 423.211L200.583 423.211L200.583 423.211L200.583 423.211L200.583 423.211L200.583 423.211L200.583 423.211C200.583 423.211 200.583 423.211 200.583 423.211C200.583 423.211 200.583 423.211 200.583 423.211C200.583 423.211 200.583 423.211 200.583 423.211C200.583 423.211 200.583 423.211 200.583 423.211C200.583 423.211 200.583 423.211 200.583 423.211C200.583 423.211 200.583 423.211 200.583 423.211C200.583 423.211 200.583 423.211 200.583 423.211C200.583 423.211 200.583 423.211 200.583 423.211L200.583 423.211C200.583 423.211 200.583 423.211 200.583 423.211C200.583 423.211 200.583 423.211 200.583 423.211C200.583 423.211 200.583 423.211 200.583 423.211L200.583 423.211L200.583 423.211C200.583 423.211 200.583 423.211 200.583 423.21C200.583 423.21 200.583 423.21 200.583 423.21L196.961 423.21ZM196.961 423.212C196.961 446.444 178.128 465.277 154.896 465.277L154.896 468.899C180.128 468.899 200.583 448.444 200.583 423.212L196.961 423.212ZM154.896 465.277C131.664 465.277 112.831 446.444 112.831 423.212L109.209 423.212C109.209 448.444 129.664 468.899 154.896 468.899L154.896 465.277ZM112.831 423.212C112.831 423.212 112.831 423.211 112.831 423.211C112.831 423.211 112.831 423.211 112.831 423.21L109.209 423.21C109.209 423.211 109.209 423.211 109.209 423.211C109.209 423.211 109.209 423.212 109.209 423.212L112.831 423.212ZM17.2788 425.021L111.02 425.021L111.02 421.4L17.2788 421.4L17.2788 425.021ZM0.981964 408.724C0.981964 417.725 8.27829 425.021 17.2788 425.021L17.2788 421.4C10.2784 421.4 4.60348 415.725 4.60348 408.724L0.981964 408.724ZM0.982006 16.487L0.981964 408.724L4.60348 408.724L4.60352 16.487L0.982006 16.487ZM17.2788 0.190221C8.27833 0.190221 0.982006 7.48656 0.982006 16.487L4.60352 16.487C4.60352 9.48666 10.2784 3.81173 17.2788 3.81173L17.2788 0.190221ZM292.514 0.190248L17.2788 0.190221L17.2788 3.81173L292.514 3.81176L292.514 0.190248ZM308.81 16.4871C308.81 7.48658 301.514 0.190248 292.514 0.190248L292.514 3.81176C299.514 3.81176 305.189 9.48668 305.189 16.4871L308.81 16.4871ZM308.81 168.736L308.81 16.4871L305.189 16.4871L305.189 168.736L308.81 168.736ZM306.268 170.541C306.503 170.541 306.737 170.543 306.97 170.547L307.029 166.926C306.776 166.922 306.522 166.92 306.268 166.92L306.268 170.541ZM264.203 212.606C264.203 189.374 283.036 170.541 306.268 170.541L306.268 166.92C281.036 166.92 260.582 187.374 260.582 212.606L264.203 212.606ZM306.268 254.672C283.036 254.672 264.203 235.838 264.203 212.606L260.582 212.606C260.582 237.839 281.036 258.293 306.268 258.293L306.268 254.672ZM306.97 254.666C306.737 254.67 306.503 254.672 306.268 254.672L306.268 258.293C306.522 258.293 306.776 258.291 307.029 258.287L306.97 254.666ZM308.81 408.724L308.81 256.476L305.189 256.476L305.189 408.724L308.81 408.724Z" fill="#FDFFFC" mask="url(#path-1-outside-1_349_2787)"/>
<path d="M2.79297 16.486C2.79297 8.48562 9.27859 2 17.279 2L292.514 1.99999C300.514 1.99999 307 8.48561 307 16.486L307 132.374L2.79297 132.374L2.79297 16.486Z" fill="url(#paint1_radial_349_2787)" fill-opacity="0.75"/>
<mask id="mask0_349_2787" style="mask-type:alpha" maskUnits="userSpaceOnUse" x="24" y="2" width="283" height="137">
<path d="M24.522 17.3918C24.522 9.39138 31.0076 2.90576 39.008 2.90576L292.514 2.90575C300.514 2.90575 307 9.39137 307 17.3918L307 138.712L24.522 138.712L24.522 17.3918Z" fill="url(#paint2_radial_349_2787)"/>
</mask>
<g mask="url(#mask0_349_2787)">
<g filter="url(#filter1_d_349_2787)">
<path fill-rule="evenodd" clip-rule="evenodd" d="M398.175 8.97691L274.431 -114.767L242.804 -83.1404C241.923 -84.4087 240.916 -85.6172 239.785 -86.7485C229.631 -96.9022 213.265 -96.9975 203.229 -86.9615C193.193 -76.9255 193.288 -60.5585 203.441 -50.4049C204.573 -49.2735 205.781 -48.2671 207.05 -47.3856L172.898 -13.2336L217.873 31.7417C216.695 32.5779 215.571 33.5239 214.515 34.5796C204.362 44.7332 204.362 61.1955 214.515 71.3491C224.669 81.5028 241.131 81.5028 251.285 71.3491C252.341 70.2934 253.287 69.1695 254.123 67.9916L296.642 110.511L329.95 77.2028C330.772 78.3529 331.7 79.451 332.733 80.4838C342.886 90.6374 359.349 90.6374 369.502 80.4838C379.656 70.3302 379.656 53.8679 369.502 43.7143C368.47 42.6814 367.371 41.7537 366.221 40.931L398.175 8.97691Z" fill="url(#paint3_linear_349_2787)"/>
</g>
</g>
</g>
<defs>
<filter id="filter0_bi_349_2787" x="-66.9214" y="-67.7129" width="443.635" height="604.515" filterUnits="userSpaceOnUse" color-interpolation-filters="sRGB">
<feFlood flood-opacity="0" result="BackgroundImageFix"/>
<feGaussianBlur in="BackgroundImageFix" stdDeviation="33.9517"/>
<feComposite in2="SourceAlpha" operator="in" result="effect1_backgroundBlur_349_2787"/>
<feBlend mode="normal" in="SourceGraphic" in2="effect1_backgroundBlur_349_2787" result="shape"/>
<feColorMatrix in="SourceAlpha" type="matrix" values="0 0 0 0 0 0 0 0 0 0 0 0 0 0 0 0 0 0 127 0" result="hardAlpha"/>
<feOffset dy="-4.52689"/>
<feGaussianBlur stdDeviation="6.79033"/>
<feComposite in2="hardAlpha" operator="arithmetic" k2="-1" k3="1"/>
<feColorMatrix type="matrix" values="0 0 0 0 1 0 0 0 0 1 0 0 0 0 1 0 0 0 0.65 0"/>
<feBlend mode="normal" in2="shape" result="effect2_innerShadow_349_2787"/>
</filter>
<filter id="filter1_d_349_2787" x="159.317" y="-124.726" width="252.439" height="252.439" filterUnits="userSpaceOnUse" color-interpolation-filters="sRGB">
<feFlood flood-opacity="0" result="BackgroundImageFix"/>
<feColorMatrix in="SourceAlpha" type="matrix" values="0 0 0 0 0 0 0 0 0 0 0 0 0 0 0 0 0 0 127 0" result="hardAlpha"/>
<feOffset dy="3.62151"/>
<feGaussianBlur stdDeviation="6.79033"/>
<feComposite in2="hardAlpha" operator="out"/>
<feColorMatrix type="matrix" values="0 0 0 0 0 0 0 0 0 0 0 0 0 0 0 0 0 0 0.15 0"/>
<feBlend mode="normal" in2="BackgroundImageFix" result="effect1_dropShadow_349_2787"/>
<feBlend mode="normal" in="SourceGraphic" in2="effect1_dropShadow_349_2787" result="shape"/>
</filter>
<linearGradient id="paint0_linear_349_2787" x1="129.018" y1="445.578" x2="147.359" y2="20.2325" gradientUnits="userSpaceOnUse">
<stop offset="0.0150313" stop-color="#CA4072" stop-opacity="0.35"/>
<stop offset="0.293155" stop-color="#DE5C8E" stop-opacity="0.25"/>
<stop offset="0.913354" stop-color="#FDFFFC" stop-opacity="0.05"/>
</linearGradient>
<radialGradient id="paint1_radial_349_2787" cx="0" cy="0" r="1" gradientUnits="userSpaceOnUse" gradientTransform="translate(307 2) rotate(156.801) scale(330.967 327.249)">
<stop stop-color="#DE87A8"/>
<stop offset="0.261904" stop-color="#CA4072"/>
<stop offset="1" stop-color="#393570"/>
</radialGradient>
<radialGradient id="paint2_radial_349_2787" cx="0" cy="0" r="1" gradientUnits="userSpaceOnUse" gradientTransform="translate(307 2.90576) rotate(154.323) scale(313.428 334.249)">
<stop stop-color="#DE87A8"/>
<stop offset="0.261904" stop-color="#CA4072"/>
<stop offset="1" stop-color="#393570"/>
</radialGradient>
<linearGradient id="paint3_linear_349_2787" x1="308.037" y1="-18.2375" x2="247.712" y2="85.214" gradientUnits="userSpaceOnUse">
<stop stop-color="#DE5C8E"/>
<stop offset="1" stop-color="#DE87A8"/>
</linearGradient>
</defs>
</svg>
