<svg width="420" height="640" viewBox="0 0 420 640" fill="none" xmlns="http://www.w3.org/2000/svg">
<mask id="path-1-outside-1_657_2926" maskUnits="userSpaceOnUse" x="0" y="0.000183105" width="421" height="640" fill="black">
<rect fill="white" y="0.000183105" width="421" height="640"/>
<path fill-rule="evenodd" clip-rule="evenodd" d="M418 562C418 570.837 410.837 578 402 578L270 578C270 611.137 243.137 638 210 638C176.863 638 150 611.137 150 578L18 578C9.16345 578 2 570.837 2 562L2.00005 18.0002C2.00005 9.16363 9.1635 2.00018 18.0001 2.00018L402 2.00022C410.837 2.00022 418 9.16367 418 18.0002L418 230.008C417.667 230.003 417.334 230 417 230C383.863 230 357 256.863 357 290C357 323.137 383.863 350 417 350C417.334 350 417.667 349.997 418 349.992L418 562Z"/>
</mask>
<path fill-rule="evenodd" clip-rule="evenodd" d="M418 562C418 570.837 410.837 578 402 578L270 578C270 611.137 243.137 638 210 638C176.863 638 150 611.137 150 578L18 578C9.16345 578 2 570.837 2 562L2.00005 18.0002C2.00005 9.16363 9.1635 2.00018 18.0001 2.00018L402 2.00022C410.837 2.00022 418 9.16367 418 18.0002L418 230.008C417.667 230.003 417.334 230 417 230C383.863 230 357 256.863 357 290C357 323.137 383.863 350 417 350C417.334 350 417.667 349.997 418 349.992L418 562Z" fill="url(#paint0_linear_657_2926)"/>
<path d="M402 578L402 580H402V578ZM418 562L416 562V562H418ZM270 578L270 576L268 576V578H270ZM150 578H152V576L150 576L150 578ZM18 578L18 580L18 580L18 578ZM2 562L0 562V562H2ZM2.00005 18.0002L4.00005 18.0002L2.00005 18.0002ZM18.0001 2.00018L18.0001 0.000183105H18.0001V2.00018ZM402 2.00022L402 4.00022L402 2.00022ZM418 18.0002L420 18.0002V18.0002H418ZM418 230.008L417.967 232.008L420 232.041L420 230.008L418 230.008ZM418 349.992L420 349.992L420 347.959L417.967 347.992L418 349.992ZM402 580C411.941 580 420 571.941 420 562H416C416 569.732 409.732 576 402 576V580ZM270 580L402 580L402 576L270 576L270 580ZM268 578C268 610.033 242.033 636 210 636V640C244.242 640 272 612.242 272 578H268ZM210 636C177.967 636 152 610.033 152 578H148C148 612.242 175.758 640 210 640V636ZM18 580L150 580L150 576L18 576L18 580ZM0 562C0 571.941 8.05889 580 18 580V576C10.268 576 4 569.732 4 562H0ZM4.95817e-05 18.0002L0 562L4 562L4.00005 18.0002L4.95817e-05 18.0002ZM18.0001 0.000183105C8.05893 0.000183105 5.04878e-05 8.05906 4.95817e-05 18.0002L4.00005 18.0002C4.00005 10.2682 10.2681 4.00018 18.0001 4.00018V0.000183105ZM402 0.000215306L18.0001 0.000183105L18.0001 4.00018L402 4.00022L402 0.000215306ZM420 18.0002C420 8.0591 411.941 0.000216139 402 0.000215306L402 4.00022C409.732 4.00022 416 10.2682 416 18.0002H420ZM420 230.008L420 18.0002L416 18.0002L416 230.008L420 230.008ZM417 232C417.323 232 417.646 232.003 417.967 232.008L418.033 228.009C417.689 228.003 417.345 228 417 228V232ZM359 290C359 257.968 384.968 232 417 232V228C382.758 228 355 255.758 355 290H359ZM417 348C384.968 348 359 322.033 359 290H355C355 324.242 382.758 352 417 352V348ZM417.967 347.992C417.646 347.997 417.323 348 417 348V352C417.345 352 417.689 351.997 418.033 351.992L417.967 347.992ZM420 562L420 349.992L416 349.992L416 562L420 562Z" fill="#FDFFFC" mask="url(#path-1-outside-1_657_2926)"/>
<path d="M2 18.0001C2 9.16356 9.16344 2.00012 18 2.00012H402C410.837 2.00012 418 9.16357 418 18.0001V202H2V18.0001Z" fill="url(#paint1_radial_657_2926)" fill-opacity="0.75"/>
<mask id="mask0_657_2926" style="mask-type:alpha" maskUnits="userSpaceOnUse" x="2" y="2" width="416" height="200">
<path d="M2 18C2 9.16344 9.16344 2 18 2H402C410.837 2 418 9.16344 418 18V202H2V18Z" fill="url(#paint2_radial_657_2926)"/>
</mask>
<g mask="url(#mask0_657_2926)">
<g filter="url(#filter0_d_657_2926)">
<path fill-rule="evenodd" clip-rule="evenodd" d="M552.272 10.9384L370.036 -171.297L323.46 -124.721C322.161 -126.589 320.679 -128.368 319.013 -130.034C304.06 -144.987 279.957 -145.128 265.177 -130.348C250.397 -115.568 250.538 -91.4645 265.491 -76.5115C267.157 -74.8455 268.936 -73.3633 270.804 -72.0652L220.509 -21.7706L286.745 44.465C285.01 45.6966 283.355 47.0897 281.8 48.6446C266.847 63.5977 266.847 87.8414 281.8 102.794C296.753 117.748 320.997 117.748 335.95 102.794C337.505 101.24 338.898 99.5843 340.129 97.8494L402.745 160.465L451.797 111.414C453.008 113.107 454.374 114.725 455.895 116.246C470.849 131.199 495.092 131.199 510.045 116.246C524.998 101.293 524.998 77.0489 510.045 62.0958C508.524 60.5748 506.907 59.2085 505.213 57.9969L552.272 10.9384Z" fill="url(#paint3_linear_657_2926)"/>
</g>
</g>
<defs>
<filter id="filter0_d_657_2926" x="205.51" y="-182.297" width="361.762" height="361.763" filterUnits="userSpaceOnUse" color-interpolation-filters="sRGB">
<feFlood flood-opacity="0" result="BackgroundImageFix"/>
<feColorMatrix in="SourceAlpha" type="matrix" values="0 0 0 0 0 0 0 0 0 0 0 0 0 0 0 0 0 0 127 0" result="hardAlpha"/>
<feOffset dy="4"/>
<feGaussianBlur stdDeviation="7.5"/>
<feComposite in2="hardAlpha" operator="out"/>
<feColorMatrix type="matrix" values="0 0 0 0 0 0 0 0 0 0 0 0 0 0 0 0 0 0 0.15 0"/>
<feBlend mode="normal" in2="BackgroundImageFix" result="effect1_dropShadow_657_2926"/>
<feBlend mode="normal" in="SourceGraphic" in2="effect1_dropShadow_657_2926" result="shape"/>
</filter>
<linearGradient id="paint0_linear_657_2926" x1="174.613" y1="608.585" x2="199.693" y2="26.9316" gradientUnits="userSpaceOnUse">
<stop offset="0.0150313" stop-color="#CA4072" stop-opacity="0.35"/>
<stop offset="0.293155" stop-color="#DE5C8E" stop-opacity="0.25"/>
<stop offset="0.913354" stop-color="#FDFFFC" stop-opacity="0.05"/>
</linearGradient>
<radialGradient id="paint1_radial_657_2926" cx="0" cy="0" r="1" gradientUnits="userSpaceOnUse" gradientTransform="translate(418 2.00014) rotate(154.323) scale(461.58 492.242)">
<stop stop-color="#DE87A8"/>
<stop offset="0.261904" stop-color="#CA4072"/>
<stop offset="1" stop-color="#393570"/>
</radialGradient>
<radialGradient id="paint2_radial_657_2926" cx="0" cy="0" r="1" gradientUnits="userSpaceOnUse" gradientTransform="translate(418 2.00001) rotate(154.323) scale(461.58 492.242)">
<stop stop-color="#DE87A8"/>
<stop offset="0.261904" stop-color="#CA4072"/>
<stop offset="1" stop-color="#393570"/>
</radialGradient>
<linearGradient id="paint3_linear_657_2926" x1="426.522" y1="-30.5427" x2="344.476" y2="127.88" gradientUnits="userSpaceOnUse">
<stop stop-color="#DE5C8E"/>
<stop offset="1" stop-color="#DE87A8"/>
</linearGradient>
</defs>
</svg>
