<svg width="519" height="340" viewBox="0 0 519 340" fill="none" xmlns="http://www.w3.org/2000/svg">
<g filter="url(#filter0_bi_321_17287)">
<mask id="path-1-outside-1_321_17287" maskUnits="userSpaceOnUse" x="0.707031" y="0.000122048" width="518" height="340" fill="black">
<rect fill="white" x="0.707031" y="0.000122048" width="518" height="340"/>
<path fill-rule="evenodd" clip-rule="evenodd" d="M451.938 2.00013C460.774 2.00013 467.938 9.16358 467.938 18.0001L467.938 121.538C467.938 121.538 467.939 121.538 467.939 121.538C494.704 121.538 516.401 143.235 516.401 170C516.401 196.765 494.704 218.462 467.939 218.462C467.939 218.462 467.938 218.462 467.938 218.462L467.938 322C467.938 330.837 460.774 338 451.938 338L18.7071 338C9.87049 338 2.70703 330.837 2.70704 322L2.70706 18.0001C2.70707 9.16351 9.87051 2.00009 18.7071 2.00009L186.868 2.00009C186.864 2.26883 186.862 2.53812 186.862 2.80789C186.862 29.5725 208.558 51.2694 235.323 51.2694C262.088 51.2694 283.785 29.5725 283.785 2.8079C283.785 2.53812 283.782 2.26886 283.778 2.00013L451.938 2.00013Z"/>
</mask>
<path fill-rule="evenodd" clip-rule="evenodd" d="M451.938 2.00013C460.774 2.00013 467.938 9.16358 467.938 18.0001L467.938 121.538C467.938 121.538 467.939 121.538 467.939 121.538C494.704 121.538 516.401 143.235 516.401 170C516.401 196.765 494.704 218.462 467.939 218.462C467.939 218.462 467.938 218.462 467.938 218.462L467.938 322C467.938 330.837 460.774 338 451.938 338L18.7071 338C9.87049 338 2.70703 330.837 2.70704 322L2.70706 18.0001C2.70707 9.16351 9.87051 2.00009 18.7071 2.00009L186.868 2.00009C186.864 2.26883 186.862 2.53812 186.862 2.80789C186.862 29.5725 208.558 51.2694 235.323 51.2694C262.088 51.2694 283.785 29.5725 283.785 2.8079C283.785 2.53812 283.782 2.26886 283.778 2.00013L451.938 2.00013Z" fill="url(#paint0_linear_321_17287)"/>
<path d="M467.938 18.0001L469.938 18.0001L467.938 18.0001ZM451.938 2.00013L451.938 4.00013L451.938 2.00013ZM467.938 121.538L465.938 121.538L465.938 123.538L467.938 123.538L467.938 121.538ZM467.938 218.462L467.938 216.462L465.938 216.462L465.938 218.462L467.938 218.462ZM451.938 338L451.938 340L451.938 338ZM18.7071 338L18.7071 336L18.7071 338ZM2.70704 322L4.70704 322L2.70704 322ZM2.70706 18.0001L4.70706 18.0001L2.70706 18.0001ZM186.868 2.00009L188.868 2.03281L188.901 9.36741e-05L186.868 9.36509e-05L186.868 2.00009ZM283.778 2.00013L283.778 0.000125273L281.745 0.000125249L281.778 2.03284L283.778 2.00013ZM469.938 18.0001C469.938 8.059 461.879 0.000127302 451.938 0.000127189L451.938 4.00013C459.67 4.00013 465.938 10.2682 465.938 18.0001L469.938 18.0001ZM469.938 121.538L469.938 18.0001L465.938 18.0001L465.938 121.538L469.938 121.538ZM467.938 123.538C467.938 123.538 467.938 123.538 467.938 123.538C467.938 123.538 467.938 123.538 467.938 123.538L467.938 123.538L467.938 123.538C467.938 123.538 467.938 123.538 467.938 123.538C467.938 123.538 467.938 123.538 467.938 123.538C467.938 123.538 467.938 123.538 467.938 123.538L467.938 123.538C467.938 123.538 467.938 123.538 467.938 123.538C467.938 123.538 467.938 123.538 467.938 123.538C467.938 123.538 467.938 123.538 467.938 123.538C467.938 123.538 467.938 123.538 467.938 123.538C467.938 123.538 467.938 123.538 467.938 123.538C467.938 123.538 467.938 123.538 467.938 123.538C467.938 123.538 467.938 123.538 467.938 123.538C467.938 123.538 467.938 123.538 467.938 123.538L467.938 123.538L467.938 123.538L467.938 123.538L467.938 123.538L467.938 123.538L467.938 123.538L467.938 123.538L467.938 123.538L467.938 123.538L467.938 123.538L467.939 123.538L467.939 123.538L467.939 123.538L467.939 123.538C467.939 123.538 467.939 123.538 467.939 123.538C467.939 123.538 467.939 123.538 467.939 123.538C467.939 123.538 467.939 123.538 467.939 123.538C467.939 123.538 467.939 123.538 467.939 123.538C467.939 123.538 467.939 123.538 467.939 123.538C467.939 123.538 467.939 123.538 467.939 123.538C467.939 123.538 467.939 123.538 467.939 123.538C467.939 123.538 467.939 123.538 467.939 123.538L467.939 123.538C467.939 123.538 467.939 123.538 467.939 123.538C467.939 123.538 467.939 123.538 467.939 123.538C467.939 123.538 467.939 123.538 467.939 123.538L467.939 123.538L467.939 123.538C467.939 123.538 467.939 123.538 467.939 123.538C467.939 123.538 467.939 123.538 467.939 123.538L467.939 119.538C467.939 119.538 467.939 119.538 467.939 119.538C467.939 119.538 467.939 119.538 467.939 119.538L467.939 119.538L467.939 119.538C467.939 119.538 467.939 119.538 467.939 119.538C467.939 119.538 467.939 119.538 467.939 119.538C467.939 119.538 467.939 119.538 467.939 119.538L467.939 119.538C467.939 119.538 467.939 119.538 467.939 119.538C467.939 119.538 467.939 119.538 467.939 119.538C467.939 119.538 467.939 119.538 467.939 119.538C467.939 119.538 467.939 119.538 467.939 119.538C467.939 119.538 467.939 119.538 467.939 119.538C467.939 119.538 467.939 119.538 467.939 119.538C467.939 119.538 467.939 119.538 467.939 119.538C467.939 119.538 467.939 119.538 467.939 119.538L467.939 119.538L467.939 119.538L467.939 119.538L467.938 119.538L467.938 119.538L467.938 119.538L467.938 119.538L467.938 119.538L467.938 119.538L467.938 119.538L467.938 119.538L467.938 119.538L467.938 119.538L467.938 119.538C467.938 119.538 467.938 119.538 467.938 119.538C467.938 119.538 467.938 119.538 467.938 119.538C467.938 119.538 467.938 119.538 467.938 119.538C467.938 119.538 467.938 119.538 467.938 119.538C467.938 119.538 467.938 119.538 467.938 119.538C467.938 119.538 467.938 119.538 467.938 119.538C467.938 119.538 467.938 119.538 467.938 119.538C467.938 119.538 467.938 119.538 467.938 119.538L467.938 119.538C467.938 119.538 467.938 119.538 467.938 119.538C467.938 119.538 467.938 119.538 467.938 119.538C467.938 119.538 467.938 119.538 467.938 119.538L467.938 119.538L467.938 119.538C467.938 119.538 467.938 119.538 467.938 119.538C467.938 119.538 467.938 119.538 467.938 119.538L467.938 123.538ZM467.939 123.538C493.599 123.538 514.401 144.34 514.401 170L518.401 170C518.401 142.131 495.808 119.538 467.939 119.538L467.939 123.538ZM514.401 170C514.401 195.66 493.599 216.462 467.939 216.462L467.939 220.462C495.808 220.462 518.401 197.869 518.401 170L514.401 170ZM467.939 216.462C467.939 216.462 467.939 216.462 467.939 216.462C467.919 216.462 467.958 216.462 467.938 216.462C467.919 216.462 467.958 216.462 467.938 216.462C467.938 216.462 467.938 216.462 467.938 216.462L467.938 220.462C467.938 220.462 467.938 220.462 467.938 220.462C467.958 220.462 467.919 220.462 467.938 220.462C467.939 220.462 467.939 220.462 467.939 220.462L467.939 216.462ZM469.938 322L469.938 218.462L465.938 218.462L465.938 322L469.938 322ZM451.938 340C461.879 340 469.938 331.941 469.938 322L465.938 322C465.938 329.732 459.67 336 451.938 336L451.938 340ZM18.7071 340L451.938 340L451.938 336L18.7071 336L18.7071 340ZM0.707035 322C0.707034 331.941 8.76593 340 18.7071 340L18.7071 336C10.9751 336 4.70703 329.732 4.70704 322L0.707035 322ZM0.707064 18.0001L0.707035 322L4.70704 322L4.70706 18.0001L0.707064 18.0001ZM18.7071 9.1735e-05C8.76594 9.16218e-05 0.707065 8.05893 0.707064 18.0001L4.70706 18.0001C4.70707 10.2681 10.9751 4.00009 18.7071 4.00009L18.7071 9.1735e-05ZM186.868 9.36509e-05L18.7071 9.1735e-05L18.7071 4.00009L186.868 4.00009L186.868 9.36509e-05ZM188.862 2.80789C188.862 2.54898 188.864 2.29059 188.868 2.03281L184.868 1.96738C184.864 2.24707 184.862 2.52725 184.862 2.80789L188.862 2.80789ZM235.323 49.2694C209.663 49.2694 188.862 28.4679 188.862 2.80789L184.862 2.80789C184.862 30.677 207.454 53.2694 235.323 53.2694L235.323 49.2694ZM281.785 2.8079C281.785 28.4679 260.983 49.2694 235.323 49.2694L235.323 53.2694C263.192 53.2694 285.785 30.677 285.785 2.8079L281.785 2.8079ZM281.778 2.03284C281.782 2.29062 281.785 2.54898 281.785 2.8079L285.785 2.8079C285.785 2.52726 285.782 2.2471 285.778 1.96741L281.778 2.03284ZM451.938 0.000127189L283.778 0.000125273L283.778 4.00013L451.938 4.00013L451.938 0.000127189Z" fill="#FDFFFC" mask="url(#path-1-outside-1_321_17287)"/>
<path d="M18.707 338C9.87048 338 2.70703 330.837 2.70703 322L2.70702 18.0001C2.70702 9.16357 9.87046 2.00012 18.707 2.00012L146.707 2.00012L146.707 338L18.707 338Z" fill="url(#paint1_radial_321_17287)" fill-opacity="0.75"/>
<mask id="mask0_321_17287" style="mask-type:alpha" maskUnits="userSpaceOnUse" x="3" y="2" width="151" height="312">
<path d="M19.707 314C10.8705 314 3.70703 306.837 3.70703 298L3.70702 18C3.70702 9.16345 10.8705 2 19.707 2L153.707 1.99999L153.707 314L19.707 314Z" fill="url(#paint2_radial_321_17287)"/>
</mask>
<g mask="url(#mask0_321_17287)">
<g filter="url(#filter1_d_321_17287)">
<path fill-rule="evenodd" clip-rule="evenodd" d="M10.4118 -98.7041L-126.265 37.9727L-91.3326 72.9051C-92.7333 73.8787 -94.068 74.9903 -95.3175 76.2398C-106.532 87.4546 -106.638 105.532 -95.5527 116.617C-84.4678 127.702 -66.3903 127.597 -55.1755 116.382C-53.926 115.132 -52.8144 113.798 -51.8409 112.397L-14.12 150.118L35.5565 100.441C36.4801 101.742 37.525 102.984 38.6911 104.15C49.9059 115.365 68.0886 115.365 79.3034 104.15C90.5182 92.9351 90.5182 74.7523 79.3034 63.5375C78.1373 62.3714 76.8959 61.3266 75.5948 60.403L122.557 13.4409L85.7681 -23.3478C87.0383 -24.2565 88.2511 -25.2811 89.3918 -26.4218C100.607 -37.6366 100.607 -55.8194 89.3918 -67.0342C78.177 -78.249 59.9942 -78.249 48.7794 -67.0342C47.6387 -65.8935 46.614 -64.6807 45.7054 -63.4105L10.4118 -98.7041Z" fill="url(#paint3_linear_321_17287)"/>
</g>
</g>
</g>
<defs>
<filter id="filter0_bi_321_17287" x="-74.293" y="-74.9999" width="667.693" height="490" filterUnits="userSpaceOnUse" color-interpolation-filters="sRGB">
<feFlood flood-opacity="0" result="BackgroundImageFix"/>
<feGaussianBlur in="BackgroundImageFix" stdDeviation="37.5"/>
<feComposite in2="SourceAlpha" operator="in" result="effect1_backgroundBlur_321_17287"/>
<feBlend mode="normal" in="SourceGraphic" in2="effect1_backgroundBlur_321_17287" result="shape"/>
<feColorMatrix in="SourceAlpha" type="matrix" values="0 0 0 0 0 0 0 0 0 0 0 0 0 0 0 0 0 0 127 0" result="hardAlpha"/>
<feOffset dy="-5"/>
<feGaussianBlur stdDeviation="7.5"/>
<feComposite in2="hardAlpha" operator="arithmetic" k2="-1" k3="1"/>
<feColorMatrix type="matrix" values="0 0 0 0 1 0 0 0 0 1 0 0 0 0 1 0 0 0 0.65 0"/>
<feBlend mode="normal" in2="shape" result="effect2_innerShadow_321_17287"/>
</filter>
<filter id="filter1_d_321_17287" x="-141.265" y="-109.704" width="278.821" height="278.822" filterUnits="userSpaceOnUse" color-interpolation-filters="sRGB">
<feFlood flood-opacity="0" result="BackgroundImageFix"/>
<feColorMatrix in="SourceAlpha" type="matrix" values="0 0 0 0 0 0 0 0 0 0 0 0 0 0 0 0 0 0 127 0" result="hardAlpha"/>
<feOffset dy="4"/>
<feGaussianBlur stdDeviation="7.5"/>
<feComposite in2="hardAlpha" operator="out"/>
<feColorMatrix type="matrix" values="0 0 0 0 0 0 0 0 0 0 0 0 0 0 0 0 0 0 0.15 0"/>
<feBlend mode="normal" in2="BackgroundImageFix" result="effect1_dropShadow_321_17287"/>
<feBlend mode="normal" in="SourceGraphic" in2="effect1_dropShadow_321_17287" result="shape"/>
</filter>
<linearGradient id="paint0_linear_321_17287" x1="492.642" y1="198.582" x2="22.844" y2="178.325" gradientUnits="userSpaceOnUse">
<stop offset="0.0150313" stop-color="#CA4072" stop-opacity="0.35"/>
<stop offset="0.293155" stop-color="#DE5C8E" stop-opacity="0.25"/>
<stop offset="0.913354" stop-color="#FDFFFC" stop-opacity="0.05"/>
</linearGradient>
<radialGradient id="paint1_radial_321_17287" cx="0" cy="0" r="1" gradientUnits="userSpaceOnUse" gradientTransform="translate(2.70703 2.00012) rotate(66.8014) scale(365.557 361.45)">
<stop stop-color="#DE87A8"/>
<stop offset="0.261904" stop-color="#CA4072"/>
<stop offset="1" stop-color="#393570"/>
</radialGradient>
<radialGradient id="paint2_radial_321_17287" cx="0" cy="0" r="1" gradientUnits="userSpaceOnUse" gradientTransform="translate(3.70703 2) rotate(64.3232) scale(346.185 369.181)">
<stop stop-color="#DE87A8"/>
<stop offset="0.261904" stop-color="#CA4072"/>
<stop offset="1" stop-color="#393570"/>
</radialGradient>
<linearGradient id="paint3_linear_321_17287" x1="-20.3109" y1="-2.30405" x2="96.8453" y2="61.2017" gradientUnits="userSpaceOnUse">
<stop stop-color="#DE5C8E"/>
<stop offset="1" stop-color="#DE87A8"/>
</linearGradient>
</defs>
</svg>
