<svg width="181" height="32" viewBox="0 0 181 32" fill="none" xmlns="http://www.w3.org/2000/svg">
<path fill-rule="evenodd" clip-rule="evenodd" d="M16.8184 0.000976562C7.9818 0.000976562 0.818359 7.16442 0.818359 16.001C0.818359 24.8375 7.9818 32.001 16.8184 32.001H164.818C173.655 32.001 180.818 24.8375 180.818 16.001C180.818 7.16442 173.655 0.000976562 164.818 0.000976562H16.8184ZM22.793 19.593C23.657 20.601 24.777 21.193 26.441 21.193C28.633 21.193 30.057 20.041 30.057 18.377C30.057 16.729 28.953 16.057 27.209 15.801L26.345 15.673C25.449 15.545 25.081 15.241 25.081 14.617C25.081 13.993 25.529 13.593 26.489 13.593C27.385 13.593 28.185 14.009 28.681 14.569L29.897 13.353C29.065 12.489 28.121 11.977 26.473 11.977C24.489 11.977 23.113 13.033 23.113 14.761C23.113 16.425 24.313 17.193 26.073 17.417L26.937 17.529C27.705 17.641 28.089 17.913 28.089 18.553C28.089 19.193 27.625 19.577 26.553 19.577C25.513 19.577 24.681 19.129 24.057 18.393L22.793 19.593ZM31.8032 20.521C32.4432 20.969 33.3232 21.193 34.2512 21.193C36.7152 21.193 38.0752 19.417 38.0752 16.569C38.0752 13.753 36.7152 11.977 34.2512 11.977C32.4592 11.977 31.2112 12.825 30.6832 14.185L32.3472 14.921C32.5712 14.169 33.1792 13.625 34.1552 13.625C35.3232 13.625 35.9312 14.489 35.9312 15.817V17.369C35.9312 18.713 35.3072 19.545 34.1552 19.545C33.4512 19.545 32.9552 19.305 32.5552 19.065L31.8032 20.521ZM41.8075 19.529C42.1115 20.393 42.8475 21.193 44.3515 21.193C46.2075 21.193 47.2475 19.945 47.2475 17.737V12.169H45.1995V17.545C45.1995 18.665 44.7995 19.513 43.5195 19.513C42.6555 19.513 41.7275 19.001 41.7275 18.025V12.169H39.6795V21.001H41.7275V19.529H41.8075ZM48.8993 18.025C48.8993 20.169 50.3713 21.193 52.5473 21.193C54.7553 21.193 56.0513 19.881 56.0513 17.753V12.169H54.0033V17.961C54.0033 18.937 53.4433 19.497 52.4993 19.497C51.6033 19.497 51.0433 19.001 51.0433 18.057V17.593C51.0433 16.841 51.2833 16.377 51.6193 15.737C52.0673 14.905 52.2753 14.313 52.2753 13.657V13.577C52.2753 12.729 51.6673 12.169 50.5953 12.169H48.7873V13.865H50.3233V14.073C50.3233 14.633 49.9873 15.193 49.6673 15.689C49.2993 16.233 48.8993 16.841 48.8993 18.025ZM52.6105 9.16098V10.601H57.5065V9.16098H54.5785V9.06498C55.1065 8.82498 55.4105 8.32898 55.4105 7.83298C55.4105 7.08098 54.8185 6.58498 53.8105 6.58498H52.6105V8.02498H53.0105C53.5225 8.02498 53.6825 8.20098 53.6825 8.60098V9.16098H52.6105ZM57.18 18.089C57.18 19.913 58.812 21.193 61.02 21.193C63.66 21.193 65.196 19.449 65.196 16.585C65.196 13.705 63.612 11.977 60.94 11.977C58.988 11.977 57.66 12.777 57.036 13.785L58.284 14.905C58.7 14.265 59.628 13.625 60.86 13.625C62.236 13.625 63.052 14.473 63.052 15.897V17.321C63.052 18.745 62.332 19.609 61.1 19.609C59.836 19.609 59.052 19.033 59.052 17.929V17.545H60.348V15.993H58.492C57.58 15.993 57.18 16.489 57.18 17.289V18.089ZM68.9182 19.529C69.2222 20.393 69.9582 21.193 71.4622 21.193C73.3182 21.193 74.3582 19.945 74.3582 17.737V12.169H72.3102V17.545C72.3102 18.665 71.9102 19.513 70.6302 19.513C69.7662 19.513 68.8382 19.001 68.8382 18.025V12.169H66.7902V21.001H68.8382V19.529H68.9182ZM69.1082 24.665C69.1082 25.833 69.7802 26.697 71.4922 26.697C73.2202 26.697 74.0362 25.673 74.0362 24.265V22.713H72.3082V24.345C72.3082 25.001 72.1162 25.321 71.4922 25.321C70.8682 25.321 70.6762 25.001 70.6762 24.345V23.737C70.6762 23.113 70.2922 22.713 69.3482 22.713H68.0682V24.089H69.1082V24.665ZM75.6579 18.569C75.6579 20.329 76.7779 21.161 78.4899 21.161C78.8259 21.161 79.3699 21.113 79.5459 21.049L79.4019 19.897C79.2739 19.929 79.1299 19.945 78.9539 19.945C78.2019 19.945 77.7539 19.481 77.7539 18.745V18.441C77.7539 17.689 78.2499 17.305 79.1779 17.305H81.1779V21.001H83.2259V15.321C83.2259 13.177 81.8979 11.977 79.3699 11.977C77.3539 11.977 76.2179 12.729 75.4819 13.849L76.7779 14.985C77.2739 14.249 77.9939 13.625 79.2419 13.625C80.5699 13.625 81.1779 14.249 81.1779 15.401V15.977H78.4899C76.6979 15.977 75.6579 16.921 75.6579 18.569ZM85.4779 18.985C85.4779 20.265 86.1339 21.001 87.5259 21.001H88.6939V19.369H87.5259V12.169H85.4779V18.985ZM90.7938 16.249V21.001H92.8418V16.377C92.8418 15.705 92.6338 15.417 91.9458 15.161L91.3218 14.921C91.6418 14.153 92.5218 13.625 93.6258 13.625C95.0178 13.625 95.8018 14.457 95.8018 15.913V21.001H97.8498V15.641C97.8498 13.417 96.3138 11.977 93.7538 11.977C91.3058 11.977 89.5778 13.449 89.4178 15.689L90.7938 16.249ZM90.4014 9.16098V10.713H97.5374V7.83298H95.6654V9.16098H90.4014ZM95.4734 4.53698V7.04898H97.2174V4.53698H95.4734ZM98.8235 18.585C98.8235 20.249 100.184 21.193 102.44 21.193C104.92 21.193 106.504 19.913 106.504 17.913V12.169H104.456V17.641C104.456 18.873 103.704 19.545 102.504 19.545C101.464 19.545 100.872 19.145 100.872 18.345V18.025C100.872 17.401 101.304 17.017 101.864 17.017H102.728V15.641H101.864C100.92 15.641 100.6 15.209 100.6 14.601C100.6 13.977 101.064 13.609 101.672 13.609C101.944 13.609 102.184 13.657 102.456 13.801L102.888 12.313C102.424 12.057 101.784 11.977 101.304 11.977C99.7675 11.977 98.7595 12.905 98.7595 14.281C98.7595 15.353 99.3995 16.169 100.456 16.425V16.521C99.4955 16.793 98.8235 17.561 98.8235 18.585ZM108.737 20.521C109.377 20.969 110.257 21.193 111.185 21.193C113.649 21.193 115.009 19.417 115.009 16.569C115.009 13.753 113.649 11.977 111.185 11.977C109.393 11.977 108.145 12.825 107.617 14.185L109.281 14.921C109.505 14.169 110.113 13.625 111.089 13.625C112.257 13.625 112.865 14.489 112.865 15.817V17.369C112.865 18.713 112.241 19.545 111.089 19.545C110.385 19.545 109.889 19.305 109.489 19.065L108.737 20.521ZM117.381 16.249V21.001H119.429V16.377C119.429 15.705 119.221 15.417 118.533 15.161L117.909 14.921C118.229 14.153 119.109 13.625 120.213 13.625C121.605 13.625 122.389 14.457 122.389 15.913V21.001H124.437V15.641C124.437 13.417 122.901 11.977 120.341 11.977C117.893 11.977 116.165 13.449 116.005 15.689L117.381 16.249ZM120.333 9.04898C120.333 10.105 120.957 10.713 122.173 10.713H126.253V9.16098H122.029V7.83298H120.333V9.04898ZM125.971 17.641C125.971 19.801 127.443 21.193 129.843 21.193C132.243 21.193 133.715 19.801 133.715 17.641V12.169H131.667V17.529C131.667 18.809 130.979 19.545 129.843 19.545C128.707 19.545 128.019 18.809 128.019 17.529V12.169H125.971V17.641ZM134.773 14.665L137.541 21.001H138.933C141.173 21.001 142.517 19.353 142.517 16.585C142.517 13.817 141.173 12.169 138.933 12.169H138.293V13.817H138.917C139.829 13.817 140.373 14.585 140.373 15.881V17.305C140.373 18.601 139.829 19.369 138.917 19.369H138.853L136.805 14.665H134.773ZM147.766 15.097V21.001H149.814V14.985C149.814 13.049 148.63 11.977 146.406 11.977C144.726 11.977 143.798 12.617 143.19 13.593L144.406 14.681C144.79 14.089 145.318 13.625 146.262 13.625C147.302 13.625 147.766 14.169 147.766 15.097ZM151.667 17.737C151.667 19.945 152.691 21.193 154.515 21.193C156.019 21.193 156.867 20.409 157.219 19.433H157.315C157.347 20.457 157.827 21.001 158.739 21.001H160.019V19.369H159.171V12.169H157.123V18.025C157.123 19.001 156.211 19.513 155.331 19.513C154.147 19.513 153.715 18.745 153.715 17.545V12.169H151.667V17.737Z" fill="#FDFFFC"/>
</svg>
