<svg width="39" height="22" viewBox="0 0 39 22" fill="none" xmlns="http://www.w3.org/2000/svg">
  <g clip-path="url(#clip0_259_1792)">
    <path
      d="M19.5176 17.581C19.5176 17.581 21.685 17.4058 21.685 19.778L23.8524 17.581C23.8524 17.581 21.685 17.7876 21.685 15.384L19.5176 17.581Z"
      fill="white"></path>
    <path
      d="M0.00292969 8.22295V0.593674C0.00292969 0.27982 0.253217 0.026123 0.56285 0.026123H3.77787C4.08752 0.026123 4.3378 0.27982 4.3378 0.593674V8.17586C4.3378 8.51587 4.06687 8.79048 3.73143 8.79048H0.56285C0.253217 8.79048 0.00292969 8.53681 0.00292969 8.22295Z"
      fill="white"></path>
    <path d="M13.0098 4.38609V0.026123H17.3447V4.42007H13.0433C13.0253 4.42007 13.0098 4.40439 13.0098 4.38609Z"
      fill="white"></path>
    <path
      d="M8.67188 4.38365V0.520616C8.67188 0.245995 8.89121 0.0236816 9.16214 0.0236816H13.0067V4.41763H8.70541C8.68735 4.41763 8.67188 4.40195 8.67188 4.38365Z"
      fill="white"></path>
    <path
      d="M21.6825 0.643368V3.83682C21.6825 4.15853 21.4245 4.42009 21.1071 4.42009H17.3477V0.026123H21.0736C21.409 0.026123 21.6825 0.303361 21.6825 0.643368Z"
      fill="white"></path>
    <path d="M0.00292969 17.5811V21.975H4.3378V17.5811H0.00292969Z" fill="white"></path>
    <path
      d="M25.9629 3.78979V0.575397C25.9629 0.256313 26.2184 0 26.5306 0H28.2619C29.3869 0 30.3004 0.925867 30.3004 2.0662V4.39656H26.5615C26.2313 4.39656 25.9655 4.12455 25.9655 3.79239L25.9629 3.78979Z"
      fill="white"></path>
    <path
      d="M25.9625 21.975V17.5811H30.2974V19.846C30.2974 21.023 29.3556 21.9776 28.1945 21.9776H25.96L25.9625 21.975Z"
      fill="white"></path>
    <path
      d="M21.625 8.18383V5.00084C21.625 4.66605 21.8934 4.39404 22.2236 4.39404H25.3638C25.6941 4.39404 25.9625 4.66605 25.9625 5.00084V8.13677C25.9625 8.49768 25.6735 8.7906 25.3174 8.7906H22.2236C21.8934 8.7906 21.625 8.51862 21.625 8.18383Z"
      fill="white"></path>
    <path
      d="M8.67252 8.22045V4.39404H13.0074V8.7409C13.0074 8.76707 12.9867 8.7906 12.9583 8.7906H9.23244C8.92279 8.7906 8.66992 8.53693 8.66992 8.22045H8.67252Z"
      fill="white"></path>
    <path
      d="M13.0098 21.9411V17.5471H16.7692C17.0866 17.5471 17.3447 17.8087 17.3447 18.1304V21.3369C17.3447 21.6717 17.0763 21.9411 16.7486 21.9411H13.0098Z"
      fill="white"></path>
    <path
      d="M9.28374 17.5549H13.0097V21.9489H9.33277C8.96896 21.9489 8.6748 21.6507 8.6748 21.2819V18.1722C8.6748 17.8322 8.9483 17.5549 9.28374 17.5549Z"
      fill="white"></path>
    <path
      d="M21.6846 21.2586V17.6806C21.6846 17.6257 21.7284 17.5786 21.7852 17.5786H25.9214C25.9756 17.5786 26.022 17.6231 26.022 17.6806V21.8732C26.022 21.9281 25.9782 21.9752 25.9214 21.9752H22.3916C22.0019 21.9752 21.6846 21.6535 21.6846 21.2586Z"
      fill="white"></path>
    <path
      d="M28.1299 0V4.39396C31.7215 4.39396 34.6349 7.34681 34.6349 10.9875C34.6349 14.6282 31.7215 17.581 28.1299 17.581V21.975C34.1162 21.975 38.9697 17.0554 38.9697 10.9875C38.9697 4.91964 34.1162 0 28.1299 0Z"
      fill="white"></path>
    <path
      d="M0.00257886 17.568V13.8044C0.00257886 13.4618 0.27867 13.1819 0.616688 13.1819H3.67174C4.03815 13.1819 4.33746 13.4853 4.33746 13.8567V17.568C4.33746 17.568 4.3323 17.5785 4.32712 17.5785H0.0103194C0.0103194 17.5785 0 17.5732 0 17.568H0.00257886Z"
      fill="white"></path>
    <path
      d="M4.33789 9.35808V12.6169C4.33789 12.9304 4.5886 13.1845 4.89782 13.1845H8.11286C8.42208 13.1845 8.67279 12.9304 8.67279 12.6169V9.35808C8.67279 9.04464 8.42208 8.79053 8.11286 8.79053H4.89782C4.5886 8.79053 4.33789 9.04464 4.33789 9.35808Z"
      fill="white"></path>
    <path
      d="M4.33737 10.9875C4.33737 10.9875 4.51023 13.1845 2.16992 13.1845L4.33737 15.3815C4.33737 15.3815 4.13351 13.1845 6.50479 13.1845L4.33737 10.9875Z"
      fill="white"></path>
    <path
      d="M13.0122 2.22314C13.0122 2.22314 13.185 4.42011 10.8447 4.42011L13.0122 6.61711C13.0122 6.61711 12.8083 4.42011 15.1796 4.42011L13.0122 2.22314Z"
      fill="white"></path>
    <path
      d="M17.3471 15.3816C17.3471 15.3816 17.52 17.5786 15.1797 17.5786L17.3471 19.7756C17.3471 19.7756 17.1433 17.5786 19.5146 17.5786L17.3471 15.3816Z"
      fill="white"></path>
    <path
      d="M25.9623 2.22314C25.9623 2.22314 26.1352 4.42011 23.7949 4.42011L25.9623 6.61711C25.9623 6.61711 25.7585 4.42011 28.1298 4.42011L25.9623 2.22314Z"
      fill="white"></path>
    <path
      d="M21.685 2.22314C21.685 2.22314 21.5121 4.42011 23.8524 4.42011L21.685 6.61711C21.685 6.61711 21.8889 4.42011 19.5176 4.42011L21.685 2.22314Z"
      fill="white"></path>
    <path
      d="M13.0102 6.59351C13.0102 6.59351 12.8373 8.7905 15.1776 8.7905L13.0102 10.9875C13.0102 10.9875 13.2141 8.7905 10.8428 8.7905L13.0102 6.59351Z"
      fill="white"></path>
    <path
      d="M4.33737 6.59351C4.33737 6.59351 4.16448 8.7905 6.50479 8.7905L4.33737 10.9875C4.33737 10.9875 4.54121 8.7905 2.16992 8.7905L4.33737 6.59351Z"
      fill="white"></path>
    <path
      d="M17.3447 16.752V14.9029C17.3447 13.9535 18.1033 13.1846 19.0399 13.1846H21.6796V17.5785H18.1601C17.7085 17.5785 17.3447 17.2071 17.3447 16.752Z"
      fill="white"></path>
    <path
      d="M13.0098 9.37899V12.596C13.0098 12.921 13.2697 13.1845 13.5904 13.1845H16.7641C17.0847 13.1845 17.3447 12.921 17.3447 12.596V9.37899C17.3447 9.054 17.0847 8.79053 16.7641 8.79053H13.5904C13.2697 8.79053 13.0098 9.054 13.0098 9.37899Z"
      fill="white"></path>
    <path
      d="M17.3442 10.9875C17.3442 10.9875 17.1713 13.1845 19.5117 13.1845L17.3442 15.3815C17.3442 15.3815 17.548 13.1845 15.1768 13.1845L17.3442 10.9875Z"
      fill="white"></path>
    <path d="M21.6846 17.5785V13.1846H25.9678C25.9962 13.1846 26.0194 13.2081 26.0194 13.2369V17.5785H21.6846Z"
      fill="#0090FF"></path>
    <path
      d="M26.0225 9.40277V12.5727C26.0225 12.9107 26.2928 13.1847 26.6263 13.1847H29.7536C30.087 13.1847 30.3574 12.9107 30.3574 12.5727V9.40277C30.3574 9.06479 30.087 8.79077 29.7536 8.79077H26.6263C26.2928 8.79077 26.0225 9.06479 26.0225 9.40277Z"
      fill="#0090FF"></path>
    <path
      d="M26.02 10.9875C26.02 10.9875 26.1929 13.1845 23.8525 13.1845L26.02 15.3815C26.02 15.3815 25.8162 13.1845 28.1874 13.1845L26.02 10.9875Z"
      fill="#0090FF"></path>
    <path
      d="M0 4.42025V0.599081C0 0.282612 0.252867 0.0236816 0.567661 0.0236816H3.76978C4.082 0.0236816 4.33746 0.279997 4.33746 0.599081V4.42025H0.00258083H0Z"
      fill="#D83273"></path>
  </g>
  <defs>
    <clipPath id="clip0_259_1792">
      <rect width="39" height="22" fill="white"></rect>
    </clipPath>
  </defs>
</svg>
