<svg width="319" height="423" viewBox="0 0 319 423" fill="none" xmlns="http://www.w3.org/2000/svg">
<g filter="url(#filter0_bi_355_1070)">
<path fill-rule="evenodd" clip-rule="evenodd" d="M12.5362 50.7672L1.64757 362.577L81.3411 365.36C80.7593 368.051 80.4074 370.833 80.3079 373.683C79.4144 399.268 99.1907 420.725 124.479 421.608C149.768 422.491 170.993 402.466 171.886 376.881C171.986 374.031 171.829 371.232 171.436 368.506L257.492 371.511L261.449 258.18C263.972 258.699 266.572 259.015 269.232 259.107C294.817 260.001 316.282 239.984 317.176 214.399C318.069 188.814 298.053 167.349 272.468 166.456C269.807 166.363 267.192 166.496 264.639 166.838L268.38 59.7015L184.452 56.7706C184.951 54.2993 185.255 51.7542 185.346 49.1515C186.239 23.5664 166.223 2.10132 140.638 1.20787C115.053 0.314424 93.5875 20.3309 92.694 45.916C92.6032 48.5187 92.7287 51.0788 93.0544 53.579L12.5362 50.7672Z" fill="url(#paint0_linear_355_1070)"/>
<path d="M1.64757 362.577L0.648182 362.542L0.613283 363.542L1.61267 363.577L1.64757 362.577ZM12.5362 50.7672L12.5711 49.7678L11.5717 49.7329L11.5368 50.7323L12.5362 50.7672ZM81.3411 365.36L82.3185 365.571L82.5712 364.402L81.376 364.361L81.3411 365.36ZM171.436 368.506L171.471 367.507L170.276 367.465L170.447 368.649L171.436 368.506ZM257.492 371.511L257.457 372.511L258.456 372.546L258.491 371.546L257.492 371.511ZM261.449 258.18L261.651 257.201L260.491 256.962L260.45 258.145L261.449 258.18ZM264.639 166.838L263.64 166.803L263.598 167.986L264.772 167.829L264.639 166.838ZM268.38 59.7015L269.38 59.7364L269.415 58.737L268.415 58.7021L268.38 59.7015ZM184.452 56.7706L183.472 56.5726L183.238 57.7289L184.417 57.77L184.452 56.7706ZM93.0544 53.579L93.0195 54.5784L94.1984 54.6195L94.046 53.4498L93.0544 53.579ZM2.64696 362.612L13.5356 50.8021L11.5368 50.7323L0.648182 362.542L2.64696 362.612ZM81.376 364.361L1.68247 361.578L1.61267 363.577L81.3062 366.36L81.376 364.361ZM81.3073 373.718C81.4047 370.927 81.7493 368.205 82.3185 365.571L80.3637 365.149C79.7694 367.898 79.4101 370.738 79.3085 373.648L81.3073 373.718ZM124.514 420.609C99.7885 419.745 80.4327 398.762 81.3073 373.718L79.3085 373.648C78.3962 399.774 98.5929 421.705 124.445 422.608L124.514 420.609ZM170.887 376.846C170.012 401.891 149.24 421.472 124.514 420.609L124.445 422.608C150.296 423.51 171.973 403.042 172.886 376.916L170.887 376.846ZM170.447 368.649C170.831 371.316 170.984 374.056 170.887 376.846L172.886 376.916C172.987 374.006 172.827 371.147 172.426 368.364L170.447 368.649ZM257.527 370.512L171.471 367.507L171.401 369.506L257.457 372.511L257.527 370.512ZM260.45 258.145L256.492 371.477L258.491 371.546L262.449 258.215L260.45 258.145ZM269.267 258.108C266.663 258.017 264.119 257.709 261.651 257.201L261.248 259.16C263.825 259.69 266.481 260.012 269.197 260.107L269.267 258.108ZM316.176 214.364C315.302 239.398 294.3 258.982 269.267 258.108L269.197 260.107C295.334 261.02 317.263 240.571 318.175 214.434L316.176 214.364ZM272.433 167.455C297.466 168.329 317.051 189.331 316.176 214.364L318.175 214.434C319.088 188.297 298.64 166.369 272.503 165.456L272.433 167.455ZM264.772 167.829C267.269 167.495 269.829 167.364 272.433 167.455L272.503 165.456C269.786 165.362 267.114 165.497 264.506 165.847L264.772 167.829ZM267.381 59.6666L263.64 166.803L265.638 166.873L269.38 59.7364L267.381 59.6666ZM184.417 57.77L268.345 60.7009L268.415 58.7021L184.487 55.7712L184.417 57.77ZM184.346 49.1166C184.257 51.6642 183.96 54.1548 183.472 56.5726L185.432 56.9687C185.942 54.4438 186.252 51.8441 186.345 49.1864L184.346 49.1166ZM140.603 2.20727C165.636 3.08144 185.221 24.0834 184.346 49.1166L186.345 49.1864C187.258 23.0493 166.81 1.12121 140.673 0.208484L140.603 2.20727ZM93.6934 45.9509C94.5676 20.9178 115.57 1.33309 140.603 2.20727L140.673 0.208484C114.536 -0.704241 92.6074 19.7441 91.6947 45.8811L93.6934 45.9509ZM94.046 53.4498C93.7273 51.0038 93.6045 48.4986 93.6934 45.9509L91.6947 45.8811C91.6018 48.5389 91.73 51.1539 92.0628 53.7082L94.046 53.4498ZM12.5013 51.7666L93.0195 54.5784L93.0893 52.5796L12.5711 49.7678L12.5013 51.7666Z" fill="#FDFFFC"/>
</g>
<defs>
<filter id="filter0_bi_355_1070" x="-74.3867" y="-74.8209" width="467.592" height="572.457" filterUnits="userSpaceOnUse" color-interpolation-filters="sRGB">
<feFlood flood-opacity="0" result="BackgroundImageFix"/>
<feGaussianBlur in="BackgroundImageFix" stdDeviation="37.5"/>
<feComposite in2="SourceAlpha" operator="in" result="effect1_backgroundBlur_355_1070"/>
<feBlend mode="normal" in="SourceGraphic" in2="effect1_backgroundBlur_355_1070" result="shape"/>
<feColorMatrix in="SourceAlpha" type="matrix" values="0 0 0 0 0 0 0 0 0 0 0 0 0 0 0 0 0 0 127 0" result="hardAlpha"/>
<feOffset dy="-5"/>
<feGaussianBlur stdDeviation="7.5"/>
<feComposite in2="hardAlpha" operator="arithmetic" k2="-1" k3="1"/>
<feColorMatrix type="matrix" values="0 0 0 0 1 0 0 0 0 1 0 0 0 0 1 0 0 0 0.65 0"/>
<feBlend mode="normal" in2="shape" result="effect2_innerShadow_355_1070"/>
</filter>
<linearGradient id="paint0_linear_355_1070" x1="158.857" y1="392.471" x2="41.3167" y2="12.7808" gradientUnits="userSpaceOnUse">
<stop offset="0.0150313" stop-color="#CA4072" stop-opacity="0.35"/>
<stop offset="0.293155" stop-color="#DE5C8E" stop-opacity="0.25"/>
<stop offset="0.913354" stop-color="#FDFFFC" stop-opacity="0.05"/>
</linearGradient>
</defs>
</svg>
